<svg viewBox="0 0 300 91.401" version="1.1" id="svg46278" xmlns:xlink="http://www.w3.org/1999/xlink" xmlns="http://www.w3.org/2000/svg">
    <defs id="defs46275">
        <linearGradient id="linearGradient68194">
            <stop offset="0" id="stop68190" stop-color="#ffb24f" stop-opacity="1"/>
            <stop offset=".246" id="stop68198" stop-color="#ffe2cc" stop-opacity="1"/>
            <stop offset=".499" id="stop68200" stop-color="#fff" stop-opacity="1"/>
            <stop offset=".75" id="stop68202" stop-color="#ffe7c8" stop-opacity="1"/>
            <stop offset="1" id="stop68192" stop-color="#ffdac5" stop-opacity="1"/>
        </linearGradient>
        <linearGradient id="linearGradient63826">
            <stop offset="0" id="stop63822" stop-color="#9b0f0f" stop-opacity="1"/>
            <stop offset=".134" id="stop63830" stop-color="#ff0" stop-opacity="1"/>
            <stop offset=".277" id="stop63832" stop-color="#000" stop-opacity="1"/>
            <stop offset="1" id="stop63824" stop-color="#000" stop-opacity="1"/>
        </linearGradient>
        <linearGradient xlink:href="#linearGradient63826" id="linearGradient63828" x1="4.193" y1="59.304" x2="126.097" y2="59.304" gradientUnits="userSpaceOnUse" gradientTransform="translate(-6.126 -58.636) scale(2.46096)"/>
        <linearGradient xlink:href="#linearGradient68194" id="linearGradient1006" gradientUnits="userSpaceOnUse" x1="79.097" y1="-2.995" x2="78.719" y2="33.845" gradientTransform="matrix(1.95003 0 0 2.46096 29.066 47.506)"/>
    </defs>
    <g id="globar" transform="translate(-4.193 -40.135)" fill-opacity="1" stroke="none" paint-order="markers stroke fill">
        <path id="rect50311" d="M8.766 59.3a4.564 4.564 0 00-4.573 4.573v46.873a4.564 4.564 0 004.573 4.574h290.855a4.563 4.563 0 004.572-4.574V97.63H24.246a4.563 4.563 0 01-4.573-4.572V78.615a4.564 4.564 0 014.573-4.573h279.947v-10.17a4.563 4.563 0 00-4.572-4.572z" fill="url(#linearGradient63828)" stroke-width="10.428"/>
        <path id="rect53588" d="M113.464 40.135a11.973 45.7 0 00-11.973 45.7 11.973 45.7 0 0011.973 45.701 11.973 45.7 0 002.396-.932 5.002 5.002 0 002.914.932h146.495a5.007 5.007 0 005.017-5.018V45.152a5.006 5.006 0 00-5.017-5.017H118.774c-1.088 0-2.09.346-2.91.93a11.973 45.7 0 00-2.4-.93z" fill="url(#linearGradient1006)" stroke-width="8.755"/>
    </g>
</svg>
