<svg width="31.14654" height="136.15735" viewBox="0 0 8.240855 36.024964" version="1.1" id="svg7877" xmlns="http://www.w3.org/2000/svg">
  <defs id="defs7874">
    <path id="rect1769" d="M22.105742 415.87717h21.899145v53.508289H22.105742z"/>
  </defs>
  <g id="layer1" transform="translate(-38.967692 -23.86756)">
    <ellipse style="fill:maroon;stroke-width:.213605" id="path836" cx="43.08812" cy="58.390381" rx="4.1204276" ry="1.5021427"/>
    <path style="fill:maroon;stroke-width:.212716" id="rect937" d="M39.219147 36.715252h7.7322874v21.888365H39.219147z"/>
    <path style="fill:#4d4d4d;stroke-width:.212716" id="rect1303" d="M42.236626 26.092955h1.8230596v6.9742332H42.236626z"/>
    <ellipse style="fill:maroon;stroke-width:.219911" id="path1017" cx="43.082462" cy="37.006073" rx="3.8633163" ry="4.9356112"/>
    <path style="fill:#4d4d4d" id="path1413" d="m50.578401 355.2071-15.884021.24118-5.137808-15.03207 12.708682-9.53151 12.992205 9.14127z" transform="matrix(.16282 0 0 .1108 36.201669 -12.794018)"/>
    <path style="fill:#4d4d4d;stroke-width:.306204" id="rect1415" d="M41.042767 28.257799h4.1761899v1.1596069H41.042767z"/>
    <path style="fill:#666;stroke-width:.306204" id="rect1697" d="M39.706577 37.801476h6.7780609v20.206371H39.706577z"/>
    <text xml:space="preserve" id="text1767" style="font-style:normal;font-variant:normal;font-weight:400;font-stretch:normal;font-size:13.3333px;font-family:sans-serif;-inkscape-font-specification:'sans-serif, Normal';font-variant-ligatures:normal;font-variant-caps:normal;font-variant-numeric:normal;font-variant-east-asian:normal;white-space:pre;shape-inside:url(#rect1769);display:inline;fill:#000" transform="matrix(.26458 0 0 .35437 35.83945 -108.63902)"><tspan x="22.105469" y="428.04133" id="tspan643">O
</tspan><tspan x="22.105469" y="444.70795" id="tspan645">C
</tspan><tspan x="22.105469" y="461.37458" id="tspan647">S</tspan></text>
  </g>
</svg>
