<svg version="1.1" id="svg7877" xmlns="http://www.w3.org/2000/svg" viewBox="0 0 68.626953 300">
  <defs id="defs7874">
    <path id="rect1769" d="M22.105742 415.87717h21.899145v53.508289H22.105742z"/>
  </defs>
  <g id="lecture" transform="matrix(8.32756 0 0 8.32756 -324.50574 -198.75851)">
    <path id="rect1303" style="fill:#4d4d4d;stroke-width:.212716" d="m43.083356 23.86756-2.069324 1.056123.836595 1.665451.386049-.004v1.672721H41.04288v1.159554h1.193796v3.649873h1.82306v-3.649873h1.159319v-1.159554h-1.159319v-1.691484l.377136-.004.761778-1.682104z"/>
    <path id="path836" style="fill:maroon;stroke-width:.213605" d="M43.082418 32.07051a3.8633163 4.9356112 0 0 0-3.855797 4.644781h-.0075v21.159038a4.1204276 1.5021427 0 0 0-.251424.515982 4.1204276 1.5021427 0 0 0 4.120355 1.502213 4.1204276 1.5021427 0 0 0 4.12059-1.502213 4.1204276 1.5021427 0 0 0-.257288-.52208v-21.15294h-.01243a3.8633163 4.9356112 0 0 0-3.856506-4.644781Z"/>
    <path style="fill:#666;stroke-width:.306204" id="rect1697" d="M39.706577 37.801476h6.7780609v20.206371H39.706577z"/>
    <text xml:space="preserve" id="text1767" style="font-style:normal;font-variant:normal;font-weight:400;font-stretch:normal;font-size:13.3333px;font-family:sans-serif;-inkscape-font-specification:'sans-serif, Normal';font-variant-ligatures:normal;font-variant-caps:normal;font-variant-numeric:normal;font-variant-east-asian:normal;white-space:pre;shape-inside:url(#rect1769);display:inline;fill:#000" transform="matrix(.26458 0 0 .35437 35.83945 -108.63902)"><tspan x="22.105469" y="428.04133" id="tspan157">O
</tspan><tspan x="22.105469" y="444.70795" id="tspan159">C
</tspan><tspan x="22.105469" y="461.37458" id="tspan161">S</tspan></text>
  </g>
</svg>
