<svg version="1.1" id="svg862" xmlns:xlink="http://www.w3.org/1999/xlink" xmlns="http://www.w3.org/2000/svg" viewBox="0 0 270.27338 300">
  <defs id="defs859">
    <linearGradient id="linearGradient2031">
      <stop style="stop-color:#373737;stop-opacity:1" offset="0" id="stop2027"/>
      <stop style="stop-color:#383838;stop-opacity:1" offset=".2" id="stop2035"/>
      <stop style="stop-color:#3a3a3a;stop-opacity:1" offset=".40000001" id="stop2037"/>
      <stop style="stop-color:#121212;stop-opacity:1" offset=".60000002" id="stop2039"/>
      <stop style="stop-color:#555;stop-opacity:1" offset=".80000001" id="stop2041"/>
      <stop style="stop-color:#000;stop-opacity:1" offset="1" id="stop2029"/>
    </linearGradient>
    <linearGradient id="linearGradient1356">
      <stop style="stop-color:#d7b100;stop-opacity:1" offset="0" id="stop1352"/>
      <stop style="stop-color:#d4a000;stop-opacity:1" offset=".2" id="stop2002"/>
      <stop style="stop-color:#e4c500;stop-opacity:1" offset=".40000001" id="stop2004"/>
      <stop style="stop-color:#c09900;stop-opacity:1" offset=".60000002" id="stop2006"/>
      <stop style="stop-color:#ffd21b;stop-opacity:1" offset=".80000001" id="stop2008"/>
      <stop style="stop-color:#c7b400;stop-opacity:1" offset="1" id="stop1354"/>
    </linearGradient>
    <linearGradient xlink:href="#linearGradient2031" id="linearGradient2033-9" x1="44.810623" y1="39.62693" x2="21.334713" y2="38.886826" gradientUnits="userSpaceOnUse"/>
    <linearGradient xlink:href="#linearGradient1356" id="linearGradient1358-1" x1="41.523964" y1="12.1969" x2="70.721779" y2="12.262855" gradientUnits="userSpaceOnUse" gradientTransform="matrix(11.23815 0 0 11.218 -439.17152 -144.17189)"/>
    <clipPath clipPathUnits="userSpaceOnUse" id="clipPath1171-4">
      <path style="fill:red;stroke-width:1.84739;stroke-linecap:square;paint-order:markers stroke fill" id="rect1173-0" transform="matrix(.92 .3919 -.39508 .91865 0 0)" d="M31.821415 15.462275h32.391418v15.597071H31.821415z"/>
    </clipPath>
  </defs>
  <g id="parabolic-mirror-hole" transform="translate(-14.863312)">
    <path id="rect1055-7" clip-path="url(#clipPath1171-4)" style="fill:url(#linearGradient2033-9);fill-opacity:1;stroke-width:1.33244;stroke-linecap:square;paint-order:markers stroke fill" d="m21.117835 56.734364 23.796935-.000257-.0019-19.475833-.01749.09156c.0079-.03074.01305-.06154.0153-.09237.01224-1.349038-5.304846-2.490722-11.875973-2.550005-6.570925-.05924-11.907435.986294-11.919538 2.335292-.000799.102275.02969.20473.09129.30676l-.08622-.295467z" transform="matrix(-11.15502 .13513 -.10065 -14.97559 522.1274 815.30067)"/>
    <ellipse style="fill:url(#linearGradient1358-1);fill-opacity:1;stroke-width:17.5809;stroke-linecap:square;paint-order:markers stroke fill" id="ellipse1290-1" cx="190.99222" cy="-4.204051" rx="164.17493" ry="72.988266" transform="matrix(.77112 .6367 -.6477 .76189 0 0)"/>
    <ellipse style="fill:#000;stroke-width:8.3565;stroke-linecap:square;paint-order:markers stroke fill" id="path2068" cx="203.70786" cy="33.21114" rx="8.3300323" ry="6.5671349" transform="matrix(.89358 .44891 -.67153 .74097 0 0)"/>
  </g>
</svg>
