<svg viewBox="0 0 258.427 300" version="1.1" id="svg5" xmlns:xlink="http://www.w3.org/1999/xlink" xmlns="http://www.w3.org/2000/svg">
    <defs id="defs2">
        <linearGradient id="linearGradient29180">
            <stop offset=".053" id="stop29176" stop-color="#b3b3b3" stop-opacity="1"/>
            <stop offset=".25" id="stop29184" stop-color="#d2d2d2" stop-opacity="1"/>
            <stop offset=".5" id="stop29186" stop-color="#9c9c9c" stop-opacity="1"/>
            <stop offset=".75" id="stop29188" stop-color="#afafaf" stop-opacity="1"/>
            <stop offset=".95" id="stop29190" stop-color="#d0d0d0" stop-opacity="1"/>
        </linearGradient>
        <linearGradient id="linearGradient29166">
            <stop offset=".05" id="stop29162" stop-color="#b3b3b3" stop-opacity="1"/>
            <stop offset=".25" id="stop29170" stop-color="#d2d2d2" stop-opacity="1"/>
            <stop offset=".5" id="stop29172" stop-color="#9c9c9c" stop-opacity="1"/>
            <stop offset=".75" id="stop29174" stop-color="#afafaf" stop-opacity="1"/>
            <stop offset=".95" id="stop29164" stop-color="#d0d0d0" stop-opacity="1"/>
        </linearGradient>
        <linearGradient id="linearGradient9133">
            <stop offset=".1" id="stop9129" stop-color="#b3b3b3" stop-opacity="1"/>
            <stop offset=".25" id="stop11476" stop-color="#d2d2d2" stop-opacity="1"/>
            <stop offset=".4" id="stop11478" stop-color="#9c9c9c" stop-opacity="1"/>
            <stop offset=".6" id="stop11480" stop-color="#afafaf" stop-opacity="1"/>
            <stop offset=".75" id="stop11482" stop-color="#d0d0d0" stop-opacity="1"/>
            <stop offset=".95" id="stop9131" stop-color="#989898" stop-opacity="1"/>
        </linearGradient>
        <linearGradient xlink:href="#linearGradient9133" id="linearGradient9135" x1="0" y1="57.5" x2="114.631" y2="57.5" gradientUnits="userSpaceOnUse"/>
        <linearGradient xlink:href="#linearGradient29166" id="linearGradient29168" x1="45" y1="125.563" x2="70" y2="125.563" gradientUnits="userSpaceOnUse"/>
        <linearGradient xlink:href="#linearGradient29180" id="linearGradient29182" x1="47.5" y1="115.585" x2="67.5" y2="115.585" gradientUnits="userSpaceOnUse"/>
    </defs>
    <g id="pressure-gauge">
        <g id="base" transform="scale(2.2472)" fill-opacity="1">
            <path id="rect29156" opacity="1" fill="url(#linearGradient29182)" stroke="none" stroke-width=".052" stroke-dasharray="none" stroke-opacity="1" d="M47.5 113.085h20v5h-20z"/>
            <path id="rect29158" opacity="1" fill="url(#linearGradient29168)" stroke="none" stroke-width=".157" stroke-dasharray="none" stroke-opacity="1" d="M45 117.625h25V133.5H45z"/>
            <circle id="path234-8" cx="57.5" cy="57.5" r="57.5" opacity="1" fill="url(#linearGradient9135)" stroke-width="2.898"/>
            <circle id="path234" cx="57.5" cy="57.5" r="50" opacity="1" fill="#fbe631" stroke-width="2.52"/>
        </g>
        <g id="right-button" transform="scale(2.2472)" fill-opacity="1" stroke-dasharray="none" stroke-opacity="1">
            <rect id="rect3310-9" width="16.936" height="9.839" x="2.138" y="108.568" ry="4.758" transform="scale(-1 1) rotate(45)" fill="#fff" stroke="#000" stroke-width=".5"/>
            <path id="rect8596-7" d="M72.75 89.386l2.978-2.979-.297-.297-2.683 2.682-2.683-2.682-.298.297 2.98 2.98v-.002z" fill="#000" stroke="none" stroke-width=".084"/>
        </g>
        <g id="screen" transform="scale(2.2472)">
            <rect id="rect1700" width="72.9" height="33.757" x="21.05" y="30.622" ry="0" opacity="1" fill="#8e9b81" fill-opacity="1" stroke="#000" stroke-width="1.243" stroke-dasharray="none" stroke-opacity="1"/>
        </g>
        <g id="left-button" transform="scale(2.2472)" fill-opacity="1" stroke-dasharray="none" stroke-opacity="1">
            <rect id="rect3310" width="16.395" height="9.525" x="83.392" y="27.098" ry="4.606" transform="rotate(44.972)" opacity="1" fill="#fff" stroke="#000" stroke-width=".484"/>
            <path id="rect8596" d="M42.498 85.862L39.52 88.84l.297.298 2.683-2.682 2.683 2.682.297-.298-2.98-2.978v.001z" opacity="1" fill="#000" stroke="none" stroke-width=".084"/>
        </g>
        <g id="center-button" transform="translate(0 .562) scale(2.24719)" fill-opacity="1" stroke-dasharray="none" stroke-opacity="1">
            <rect id="rect3310-1" width="17" height="10" x="79.75" y="-62.5" ry="4.836" transform="rotate(90)" fill="#fff" stroke="#000" stroke-width=".5"/>
            <path id="rect8923" fill="#000" stroke="none" stroke-width=".024" d="M55.5 89.25h4v.5h-4z"/>
            <path id="rect8923-7" fill="#000" stroke="none" stroke-width=".024" d="M55.5 88h4v.5h-4z"/>
            <path id="rect8923-6" fill="#000" stroke="none" stroke-width=".024" d="M55.5 86.75h4v.5h-4z"/>
            <path id="path9023" d="M57.5 84.75a3.5 3.5 0 00-3.5 3.5 3.5 3.5 0 003.5 3.5 3.5 3.5 0 003.5-3.5 3.5 3.5 0 00-3.5-3.5zm0 .5a3 3 0 013 3 3 3 0 01-3 3 3 3 0 01-3-3 3 3 0 013-3z" fill="#000" stroke="none" stroke-width=".142"/>
        </g>
        <g aria-label="DIGITAL PRESSURE GAUGE" id="text" style="-inkscape-font-specification:'Franklin Gothic Medium, '" transform="scale(2.2472)" font-size="5.333" font-family="Franklin Gothic Medium" opacity="1" stroke-width=".052">
            <path d="M26.939 28.61v-3.555h1.31q.726 0 1.166.515.44.513.44 1.269 0 .755-.453 1.263-.453.507-1.297.507zm.659-.524h.534q.43 0 .729-.323.3-.323.3-.96 0-.522-.264-.881-.26-.362-.69-.362h-.61z" id="path32292"/>
            <path d="M31.09 28.61h-.64v-3.555h.64z" id="path32294"/>
            <path d="M34.569 26.792v1.817h-.284l-.195-.479q-.31.534-.961.534-.727 0-1.086-.552-.357-.552-.357-1.279 0-.768.399-1.3.4-.533 1.12-.533.536 0 .882.313.347.31.438.773l-.558.099q-.156-.651-.747-.651-.378 0-.617.307-.237.307-.237.945 0 1.347.844 1.347.328 0 .541-.227.216-.226.216-.599h-.734v-.515z" id="path32296"/>
            <path d="M35.936 28.61h-.64v-3.555h.64z" id="path32298"/>
            <path d="M37.96 28.61h-.688v-3.006h-.945v-.55h2.578v.55h-.945z" id="path32300"/>
            <path d="M41.809 28.61h-.685l-.284-.847h-1.367l-.279.846h-.547l1.18-3.554h.789zm-1.141-1.36l-.518-1.586-.518 1.586z" id="path32302"/>
            <path d="M44.423 28.61h-2.187v-3.555h.674v2.974h1.513z" id="path32304"/>
            <path d="M46.868 28.61h-.64v-3.555h1.456q.622 0 .921.315.303.312.303.74 0 .486-.326.788-.325.303-.825.303h-.889zm0-1.959h.758q.297 0 .453-.146.157-.146.157-.388 0-.219-.146-.375-.143-.156-.521-.156h-.7z" id="path32306"/>
            <path d="M52.194 28.61h-.677l-.552-1.462h-.901v1.461h-.64v-3.554h1.54q.644 0 .946.291.302.29.302.75 0 .685-.64.943zm-2.13-1.975h.797q.346 0 .515-.145.17-.146.17-.401 0-.235-.167-.378-.167-.146-.466-.146h-.85z" id="path32308"/>
            <path d="M55.16 28.61h-2.31v-3.555h2.287v.528H53.49v.964h1.323v.515H53.49v.995h1.67z" id="path32310"/>
            <path d="M55.34 27.753l.622-.133q.112.528.86.528.34 0 .523-.135.185-.135.185-.336 0-.146-.083-.268-.084-.125-.357-.195l-.68-.178q-.349-.09-.515-.205-.167-.117-.269-.328-.099-.211-.099-.45 0-.477.355-.764.354-.289.906-.289.458 0 .817.2.362.201.461.568l-.609.151q-.14-.403-.656-.403-.3 0-.459.125-.156.125-.156.317 0 .305.495.427l.604.151q.55.138.737.41.188.268.188.593 0 .523-.396.826-.393.3-1.021.3-.529 0-.927-.222-.396-.222-.526-.69z" id="path32312"/>
            <path d="M58.387 27.753l.622-.133q.112.528.86.528.34 0 .523-.135.185-.135.185-.336 0-.146-.084-.268-.083-.125-.356-.195l-.68-.178q-.349-.09-.516-.205-.166-.117-.268-.328-.099-.211-.099-.45 0-.477.354-.764.355-.289.907-.289.458 0 .817.2.362.201.461.568l-.61.151q-.14-.403-.655-.403-.3 0-.459.125-.156.125-.156.317 0 .305.495.427l.604.151q.55.138.737.41.188.268.188.593 0 .523-.396.826-.394.3-1.021.3-.529 0-.927-.222-.396-.222-.526-.69z" id="path32314"/>
            <path d="M64.246 25.055v2.284q0 .463-.104.713-.104.25-.404.432-.297.18-.726.18-.435 0-.716-.156-.28-.156-.401-.427-.123-.274-.123-.696v-2.33h.654v2.284q0 .468.195.617.198.146.458.146.3 0 .48-.157.18-.159.18-.606v-2.284z" id="path32316"/>
            <path d="M67.749 28.61h-.677l-.552-1.462h-.902v1.461h-.64v-3.554h1.542q.643 0 .945.291.302.29.302.75 0 .685-.64.943zm-2.13-1.975h.796q.347 0 .516-.145.17-.146.17-.401 0-.235-.167-.378-.167-.146-.467-.146h-.849z" id="path32318"/>
            <path d="M70.715 28.61h-2.31v-3.555h2.286v.528h-1.645v.964h1.322v.515h-1.322v.995h1.669z" id="path32320"/>
            <path d="M75.298 26.792v1.817h-.284l-.195-.479q-.31.534-.96.534-.727 0-1.087-.552-.357-.552-.357-1.279 0-.768.399-1.3.4-.533 1.12-.533.536 0 .882.313.347.31.438.773l-.557.099q-.157-.651-.748-.651-.377 0-.617.307-.237.307-.237.945 0 1.347.844 1.347.328 0 .541-.227.217-.226.217-.599h-.735v-.515z" id="path32322"/>
            <path d="M78.84 28.61h-.685l-.284-.847h-1.367l-.279.846h-.547l1.18-3.554h.79zm-1.14-1.36l-.519-1.586-.518 1.586z" id="path32324"/>
            <path d="M81.595 25.055v2.284q0 .463-.104.713-.104.25-.404.432-.297.18-.726.18-.435 0-.716-.156-.28-.156-.402-.427-.122-.274-.122-.696v-2.33h.654v2.284q0 .468.195.617.198.146.458.146.3 0 .48-.157.18-.159.18-.606v-2.284z" id="path32326"/>
            <path d="M85.025 26.792v1.817h-.284l-.195-.479q-.31.534-.961.534-.727 0-1.086-.552-.357-.552-.357-1.279 0-.768.398-1.3.401-.533 1.12-.533.537 0 .883.313.346.31.437.773l-.557.099q-.156-.651-.747-.651-.378 0-.617.307-.237.307-.237.945 0 1.347.843 1.347.328 0 .542-.227.216-.226.216-.599h-.734v-.515z" id="path32328"/>
            <path d="M88.061 28.61h-2.31v-3.555h2.287v.528h-1.646v.964h1.323v.515h-1.323v.995h1.67z" id="path32330"/>
        </g>
    </g>
</svg>
