<svg viewBox="0 0 300 167.946" version="1.1" id="svg798" xmlns:xlink="http://www.w3.org/1999/xlink" xmlns="http://www.w3.org/2000/svg">
    <defs id="defs795">
        <linearGradient id="linearGradient31314">
            <stop offset=".077" id="stop31302" stop-color="#b3b3b3" stop-opacity="1"/>
            <stop offset=".249" id="stop31304" stop-color="#d2d2d2" stop-opacity="1"/>
            <stop offset=".41" id="stop31306" stop-color="#9c9c9c" stop-opacity="1"/>
            <stop offset=".618" id="stop31308" stop-color="#afafaf" stop-opacity="1"/>
            <stop offset=".779" id="stop31310" stop-color="#d0d0d0" stop-opacity="1"/>
            <stop offset=".955" id="stop31312" stop-color="#989898" stop-opacity="1"/>
        </linearGradient>
        <linearGradient id="linearGradient44730">
            <stop offset="0" id="stop44726" stop-color="#4a4a4a" stop-opacity="1"/>
            <stop offset=".201" id="stop44821" stop-color="#5b5b5b" stop-opacity="1"/>
            <stop offset=".4" id="stop44823" stop-color="#8a8a8a" stop-opacity="1"/>
            <stop offset=".6" id="stop44825" stop-color="#424242" stop-opacity="1"/>
            <stop offset=".802" id="stop44829" stop-color="#6b6b6b" stop-opacity="1"/>
            <stop offset="1" id="stop44728" stop-color="#4a4a4a" stop-opacity="1"/>
        </linearGradient>
        <linearGradient id="linearGradient48501">
            <stop offset="0" id="stop48497" stop-color="#424242" stop-opacity="1"/>
            <stop offset=".2" id="stop48505" stop-color="#828282" stop-opacity="1"/>
            <stop offset=".4" id="stop48507" stop-color="#929292" stop-opacity="1"/>
            <stop offset=".6" id="stop48509" stop-color="#a5a5a5" stop-opacity="1"/>
            <stop offset=".796" id="stop48511" stop-color="#878787" stop-opacity="1"/>
            <stop offset="1" id="stop48499" stop-color="#2d2d2d" stop-opacity="1"/>
        </linearGradient>
        <linearGradient id="linearGradient92545">
            <stop offset="0" id="stop92541" stop-color="#2f2f2f" stop-opacity="1"/>
            <stop offset=".249" id="stop92549" stop-color="#474747" stop-opacity="1"/>
            <stop offset=".5" id="stop92551" stop-color="#787878" stop-opacity="1"/>
            <stop offset=".75" id="stop92553" stop-color="#4f4f4f" stop-opacity="1"/>
            <stop offset="1" id="stop92543" stop-color="#3d3d3d" stop-opacity="1"/>
        </linearGradient>
        <linearGradient xlink:href="#linearGradient44730" id="linearGradient55895-5-1" gradientUnits="userSpaceOnUse" x1="58.135" y1="65.447" x2="77.913" y2="65.566" gradientTransform="matrix(5.54004 0 0 5.03068 -1082.064 -273.688)"/>
        <linearGradient xlink:href="#linearGradient31314" id="linearGradient31318-5-7" x1="134.835" y1="185.429" x2="171.708" y2="185.429" gradientUnits="userSpaceOnUse" gradientTransform="matrix(.09953 -3.11413 1.20517 -.0456 -1002.07 495.789)"/>
        <linearGradient xlink:href="#linearGradient31314" id="linearGradient76316-0-8" gradientUnits="userSpaceOnUse" gradientTransform="matrix(-.01277 .92162 -.85242 .02158 -460.533 -221.465)" x1="134.835" y1="185.429" x2="171.708" y2="185.429"/>
        <linearGradient xlink:href="#linearGradient12626" id="linearGradient12628" x1="-577.099" y1="-105.957" x2="-546.054" y2="-105.957" gradientUnits="userSpaceOnUse"/>
        <linearGradient id="linearGradient12626">
            <stop offset=".05" id="stop12624" stop-color="#989898" stop-opacity="1"/>
            <stop offset=".22" id="stop12636" stop-color="#d0d0d0" stop-opacity="1"/>
            <stop offset=".38" id="stop12634" stop-color="#afafaf" stop-opacity="1"/>
            <stop offset=".59" id="stop12632" stop-color="#9c9c9c" stop-opacity="1"/>
            <stop offset=".75" id="stop12630" stop-color="#d2d2d2" stop-opacity="1"/>
            <stop offset=".92" id="stop12622" stop-color="#b3b3b3" stop-opacity="1"/>
        </linearGradient>
        <linearGradient xlink:href="#linearGradient48501" id="linearGradient48503-5-4" x1="32.603" y1="49.265" x2="77.553" y2="49.025" gradientUnits="userSpaceOnUse" gradientTransform="matrix(5.54004 0 0 5.03068 -797.846 -260.422)"/>
        <linearGradient xlink:href="#linearGradient44730" id="linearGradient44732-4-3" x1="58.135" y1="65.447" x2="77.913" y2="65.566" gradientUnits="userSpaceOnUse" gradientTransform="matrix(5.54004 0 0 5.03068 -797.846 -260.422)"/>
        <linearGradient xlink:href="#linearGradient92545" id="linearGradient75726" gradientUnits="userSpaceOnUse" x1="6.357" y1="24.031" x2="18.098" y2="24.152"/>
    </defs>
    <g id="pump-9" transform="translate(565.209 79.401) scale(.7229)">
        <rect id="rect50079-5-3" width="114.882" height="36.18" x="-589.996" y="77.864" ry="2.246" fill="gray" stroke-width="3.431" stroke-linecap="square" paint-order="markers stroke fill"/>
        <rect id="rect19760-8-5" width="192.577" height="97.687" x="-779.253" y="-36.104" ry="15.029" rx="0" fill="#666" stroke-width="1.98" stroke-linecap="square" paint-order="markers stroke fill"/>
        <path id="rect55893-8-6" d="M-758.414-40.928a2.24 2.24 0 00-2.245 2.245v9.38a2.24 2.24 0 002.245 2.244h105.079c1.244 0 2.246-1 2.246-2.245v-9.379a2.24 2.24 0 00-2.246-2.245zm0 15.076a2.24 2.24 0 00-2.245 2.245v9.378a2.24 2.24 0 002.245 2.245h105.079c1.244 0 2.246-1 2.246-2.245v-9.378a2.24 2.24 0 00-2.246-2.245zm0 15.075a2.24 2.24 0 00-2.245 2.245V.847a2.24 2.24 0 002.245 2.245h105.079a2.24 2.24 0 002.246-2.245v-9.379a2.24 2.24 0 00-2.246-2.245zm0 15.075a2.24 2.24 0 00-2.245 2.245v9.378a2.24 2.24 0 002.245 2.246h105.079a2.242 2.242 0 002.246-2.246V6.543a2.24 2.24 0 00-2.246-2.245zm0 15.074a2.24 2.24 0 00-2.245 2.247v9.377a2.24 2.24 0 002.245 2.246h105.079a2.242 2.242 0 002.246-2.246v-9.377a2.242 2.242 0 00-2.246-2.247zm0 15.076a2.24 2.24 0 00-2.245 2.246v9.377a2.241 2.241 0 002.245 2.247h105.079a2.242 2.242 0 002.246-2.247v-9.377a2.242 2.242 0 00-2.246-2.246zm0 15.075a2.24 2.24 0 00-2.245 2.246v9.378a2.24 2.24 0 002.245 2.245h105.079a2.24 2.24 0 002.246-2.245v-9.378a2.242 2.242 0 00-2.246-2.246z" fill="url(#linearGradient55895-5-1)" fill-opacity="1" stroke="#000" stroke-width=".823" stroke-linecap="square" stroke-opacity="1" paint-order="markers stroke fill"/>
        <rect id="rect32992-8-0" width="57.773" height="136.279" x="-660.386" y="-52.988" ry="13.17" fill="gray" stroke-width="1.546" stroke-linecap="square" paint-order="markers stroke fill"/>
        <path id="path31294-3-9" d="M-781.548 10.28a4.926 57.009 1.86 002.618 56.459l-.011.351.506-.018 26.063-.987.011-.351a4.926 57.009 1.86 00.495.332 4.926 57.009 1.86 006.757-57.164 4.926 57.009 1.86 00-3.115-56.792 4.926 57.009 1.86 00-.518.378l.012-.358-26.063.986-.506.019-.012.358a4.926 57.009 1.86 00-6.237 56.787zm3.085 57.661l26.852-1.885z" fill="url(#linearGradient31318-5-7)" fill-opacity="1" stroke-width="1.832"/>
        <path id="path76314-7-9" d="M-607.669-76.402a3.488 16.865.894 00-2.9-16.679l.002-.104-.358.009-18.435.467v.104a3.488 16.865.894 00-.357-.095 3.488 16.865.894 00-3.725 16.95 3.488 16.865.894 003.258 16.775 3.488 16.865.894 00.359-.115l-.001.106 18.434-.467.358-.009.001-.106a3.488 16.865.894 003.364-16.836zm-3.252-17.031l-18.977.737z" fill="url(#linearGradient76316-0-8)" fill-opacity="1" stroke-width=".839"/>
        <path id="rect12620" fill="url(#linearGradient12628)" fill-opacity="1" stroke="none" stroke-width=".657" stroke-linecap="square" stroke-dasharray="none" paint-order="markers stroke fill" d="M-577.099-109.838h31.045v7.761h-31.045z"/>
        <rect id="rect19032-7-4" width="249.686" height="200.198" x="-618.55" y="-103.64" ry="9.648" fill="url(#linearGradient48503-5-4)" fill-opacity="1" stroke-width="1.58" stroke-linecap="square" paint-order="markers stroke fill"/>
        <rect id="rect26348-8-3" width="274.257" height="17.487" x="-641.792" y="105" ry="6.633" fill="#999" stroke-width="1.463" stroke-linecap="square" paint-order="markers stroke fill"/>
        <rect id="rect31432-3-6" width="2.656" height="200.198" x="-478.434" y="-103.64" ry="0" fill="#000" stroke-width=".802" stroke-linecap="square" paint-order="markers stroke fill"/>
        <rect id="rect38076-8-7" width="2.656" height="200.198" x="-590.66" y="-103.64" ry="0" fill="#000" stroke-width=".802" stroke-linecap="square" paint-order="markers stroke fill"/>
        <path id="rect43160-9-2" d="M-474.196-79.52a2.24 2.24 0 00-2.246 2.245v9.379a2.24 2.24 0 002.246 2.245h105.079a2.24 2.24 0 002.245-2.245v-9.38a2.24 2.24 0 00-2.245-2.244zm0 17.487a2.242 2.242 0 00-2.246 2.247v9.377a2.24 2.24 0 002.246 2.245h105.079a2.24 2.24 0 002.245-2.245v-9.377a2.24 2.24 0 00-2.245-2.247zm0 18.09a2.24 2.24 0 00-2.246 2.245v9.38a2.24 2.24 0 002.246 2.244h105.079c1.244 0 2.245-1 2.245-2.245v-9.379a2.24 2.24 0 00-2.245-2.245zm0 17.487a2.24 2.24 0 00-2.246 2.245v9.38a2.24 2.24 0 002.246 2.244h105.079c1.244 0 2.245-1 2.245-2.245v-9.379a2.24 2.24 0 00-2.245-2.245zm0 16.884a2.242 2.242 0 00-2.246 2.247v9.377a2.242 2.242 0 002.246 2.246h105.079a2.24 2.24 0 002.245-2.246v-9.377a2.241 2.241 0 00-2.245-2.247zm0 18.09a2.242 2.242 0 00-2.246 2.247v9.377a2.24 2.24 0 002.246 2.245h105.079c1.244 0 2.245-1 2.245-2.245v-9.377a2.24 2.24 0 00-2.245-2.246zm0 19.298a2.24 2.24 0 00-2.246 2.245v9.377a2.242 2.242 0 002.246 2.246h105.079a2.24 2.24 0 002.245-2.246V30.06a2.24 2.24 0 00-2.245-2.245zm0 17.487a2.24 2.24 0 00-2.246 2.245v9.377a2.242 2.242 0 002.246 2.246h105.079a2.24 2.24 0 002.245-2.246v-9.377a2.24 2.24 0 00-2.245-2.245zm0 17.487a2.24 2.24 0 00-2.246 2.245v9.379a2.24 2.24 0 002.246 2.245h105.079a2.24 2.24 0 002.245-2.245v-9.38a2.24 2.24 0 00-2.245-2.244z" fill="url(#linearGradient44732-4-3)" fill-opacity="1" stroke-width=".823" stroke-linecap="square" paint-order="markers stroke fill"/>
        <path id="path91087-0-6" d="M15.103 29.487l-6.066-.042-2.996-5.274 3.069-5.232 6.066.042 2.996 5.274z" transform="matrix(1.40904 0 0 1.2279 -416.801 56.274)" fill="url(#linearGradient75726)" fill-opacity="1" stroke="#000" stroke-width="1.332" stroke-linecap="square" stroke-dasharray="none" stroke-opacity="1" paint-order="markers stroke fill"/>
    </g>
</svg>
