<svg xmlns="http://www.w3.org/2000/svg" xmlns:xlink="http://www.w3.org/1999/xlink" id="svg15921" version="1.1" viewBox="0 0 300 93.963">
  <defs id="defs15918">
    <linearGradient id="linearGradient7682">
      <stop id="stop7672" offset="0" style="stop-color:#a2a08c;stop-opacity:1"/>
      <stop id="stop7674" offset=".245" style="stop-color:#bfb575;stop-opacity:1"/>
      <stop id="stop7676" offset=".498" style="stop-color:#ff0;stop-opacity:1"/>
      <stop id="stop7678" offset=".75" style="stop-color:#bfb575;stop-opacity:1"/>
      <stop id="stop7680" offset="1" style="stop-color:#a2a08c;stop-opacity:1"/>
    </linearGradient>
    <linearGradient id="linearGradient4766">
      <stop id="stop4756" offset="0" style="stop-color:#a2a08c;stop-opacity:1"/>
      <stop id="stop4758" offset=".245" style="stop-color:#bfb575;stop-opacity:1"/>
      <stop id="stop4760" offset=".498" style="stop-color:#ff0;stop-opacity:1"/>
      <stop id="stop4762" offset=".75" style="stop-color:#bfb575;stop-opacity:1"/>
      <stop id="stop4764" offset="1" style="stop-color:#a2a08c;stop-opacity:1"/>
    </linearGradient>
    <linearGradient id="linearGradient11659">
      <stop id="stop11655" offset=".05" style="stop-color:#959595;stop-opacity:1"/>
      <stop id="stop11663" offset=".25" style="stop-color:#b4b4b4;stop-opacity:1"/>
      <stop id="stop11665" offset=".5" style="stop-color:#7e7e7e;stop-opacity:1"/>
      <stop id="stop11667" offset=".75" style="stop-color:#919191;stop-opacity:1"/>
      <stop id="stop11657" offset=".95" style="stop-color:#b2b2b2;stop-opacity:1"/>
    </linearGradient>
    <linearGradient id="linearGradient18591">
      <stop id="stop18589" offset=".05" style="stop-color:#949494;stop-opacity:1"/>
      <stop id="stop18587" offset=".25" style="stop-color:#737373;stop-opacity:1"/>
      <stop id="stop18585" offset=".5" style="stop-color:#606060;stop-opacity:1"/>
      <stop id="stop18583" offset=".75" style="stop-color:#969696;stop-opacity:1"/>
      <stop id="stop18581" offset=".95" style="stop-color:#777;stop-opacity:1"/>
    </linearGradient>
    <linearGradient xlink:href="#linearGradient11659" id="linearGradient6898" x1="14.063" x2="21.063" y1="-4.875" y2="-4.875" gradientTransform="matrix(.42951 0 0 .42938 -556.793 -429.42)" gradientUnits="userSpaceOnUse"/>
    <linearGradient xlink:href="#linearGradient11659" id="linearGradient6900" x1="12.563" x2="22.563" y1="2.375" y2="2.375" gradientTransform="matrix(.42951 0 0 .42938 -556.793 -429.42)" gradientUnits="userSpaceOnUse"/>
    <linearGradient xlink:href="#linearGradient18591" id="linearGradient6902" x1="12.563" x2="22.563" y1="-11.375" y2="-11.375" gradientTransform="matrix(-.65653 .29296 -.20932 -.4688 558.399 421.093)" gradientUnits="userSpaceOnUse"/>
    <linearGradient xlink:href="#linearGradient11659" id="linearGradient6904" x1="14.063" x2="21.063" y1="-4.875" y2="-4.875" gradientTransform="matrix(.42951 0 0 .42938 -579.013 -429.42)" gradientUnits="userSpaceOnUse"/>
    <linearGradient xlink:href="#linearGradient11659" id="linearGradient6906" x1="12.563" x2="22.563" y1="2.375" y2="2.375" gradientTransform="matrix(.42951 0 0 .42938 -579.013 -429.42)" gradientUnits="userSpaceOnUse"/>
    <linearGradient xlink:href="#linearGradient18591" id="linearGradient6908" x1="12.563" x2="22.563" y1="-11.375" y2="-11.375" gradientTransform="matrix(-.65653 .29296 -.20932 -.4688 580.619 421.093)" gradientUnits="userSpaceOnUse"/>
    <linearGradient xlink:href="#linearGradient4766" id="linearGradient6910" x1="326.345" x2="326.345" y1="-188.953" y2="-102.395" gradientTransform="matrix(.15683 0 0 .17227 473.945 444.138)" gradientUnits="userSpaceOnUse"/>
    <linearGradient xlink:href="#linearGradient7682" id="linearGradient6912" x1="326.345" x2="326.345" y1="-188.953" y2="-102.395" gradientTransform="matrix(.15683 0 0 .17227 544.543 444.138)" gradientUnits="userSpaceOnUse"/>
  </defs>
  <g id="sample-compartment-znse" transform="translate(-2060.653 -1616.41) scale(3.94503)">
    <path id="rect5963-3-5-4" d="M-550.753-433.552h3.007v4.079h-3.007z" style="fill:url(#linearGradient6898);fill-opacity:1;stroke-width:.0183868" transform="scale(-1)"/>
    <path id="rect4162-5-2-5" d="M-551.397-429.473h4.295v2.147h-4.295z" style="fill:url(#linearGradient6900);fill-opacity:1;stroke-width:.0110817" transform="scale(-1)"/>
    <rect id="rect5181-6-1-3" width="4.295" height=".043" x="-551.397" y="-428.896" ry="0" style="fill:#a0a0a0;fill-opacity:1;stroke-width:.00471508" transform="scale(-1)"/>
    <path id="rect9017-5-3-5" d="M548.806 430.577a1.089 1.088 0 0 0-.643 1.056l-2.119.946a.256.256 0 0 0-.13.339l.105.234c.058.13.21.188.34.13l2.118-.945a1.089 1.088 0 0 0 1.216.227 1.089 1.088 0 0 0 .643-1.057l2.119-.945a.256.256 0 0 0 .13-.34l-.105-.234a.256.256 0 0 0-.34-.13l-2.118.946a1.089 1.088 0 0 0-1.216-.227z" style="fill:url(#linearGradient6902);fill-opacity:1;stroke:none;stroke-width:.0269209;stroke-dasharray:none;stroke-opacity:1"/>
    <path id="rect5963-3-1-0-1" d="M-572.973-433.552h3.007v4.079h-3.007z" style="fill:url(#linearGradient6904);fill-opacity:1;stroke-width:.0183868" transform="scale(-1)"/>
    <path id="rect4162-5-4-9-8" d="M-573.617-429.473h4.295v2.147h-4.295z" style="fill:url(#linearGradient6906);fill-opacity:1;stroke-width:.0110817" transform="scale(-1)"/>
    <rect id="rect5181-6-8-4-3" width="4.295" height=".043" x="-573.617" y="-428.896" ry="0" style="fill:#a0a0a0;fill-opacity:1;stroke-width:.00471508" transform="scale(-1)"/>
    <path id="rect9017-5-0-2-7" d="M571.026 430.577a1.089 1.088 0 0 0-.643 1.056l-2.119.946a.256.256 0 0 0-.13.339l.105.234c.058.13.21.188.34.13l2.118-.945a1.089 1.088 0 0 0 1.216.227 1.089 1.088 0 0 0 .643-1.057l2.119-.945a.256.256 0 0 0 .13-.34l-.105-.234a.256.256 0 0 0-.34-.13l-2.118.946a1.089 1.088 0 0 0-1.216-.227z" style="fill:url(#linearGradient6908);fill-opacity:1;stroke:none;stroke-width:.0269209;stroke-dasharray:none;stroke-opacity:1"/>
    <path id="rect7077-3-6" d="M524.536 411.933h71.647v14.53h-71.647z" style="fill:none;fill-opacity:1;stroke:#000;stroke-width:1.72705;stroke-linecap:square;stroke-dasharray:none;stroke-opacity:1;paint-order:markers stroke fill"/>
    <rect id="cell-left-znse" width="2.776" height="15.067" x="523.677" y="411.664" ry=".391" style="fill:url(#linearGradient6910);fill-opacity:1;stroke:none;stroke-width:1.13341;stroke-dasharray:none;stroke-opacity:1;paint-order:markers stroke fill"/>
    <rect id="cell-right-znse" width="2.776" height="15.067" x="594.275" y="411.664" ry=".391" style="fill:url(#linearGradient6912);fill-opacity:1;stroke:none;stroke-width:1.13341;stroke-dasharray:none;stroke-opacity:1;paint-order:markers stroke fill"/>
    <rect id="rect6170-0-6" width="4.258" height="3.19" x="593.587" y="424.93" ry=".522" style="fill:#009ee0;fill-opacity:1;stroke:#000;stroke-width:1.08274;stroke-linecap:square;stroke-dasharray:none;stroke-opacity:1;paint-order:markers stroke fill"/>
    <rect id="rect6168-3-2" width="4.258" height="3.19" x="593.587" y="410.275" ry=".522" style="fill:#009ee0;fill-opacity:1;stroke:#000;stroke-width:1.08274;stroke-linecap:square;stroke-dasharray:none;stroke-opacity:1;paint-order:markers stroke fill"/>
    <rect id="rect10251-9-7" width="4.258" height="3.19" x="522.883" y="424.93" ry=".522" style="fill:#009ee0;fill-opacity:1;stroke:#000;stroke-width:1.08274;stroke-linecap:square;stroke-dasharray:none;stroke-opacity:1;paint-order:markers stroke fill"/>
    <rect id="rect8256-0-9-4" width="4.258" height="3.19" x="522.883" y="410.275" ry=".522" style="fill:#009ee0;fill-opacity:1;stroke:#000;stroke-width:1.08275;stroke-linecap:square;stroke-dasharray:none;stroke-opacity:1;paint-order:markers stroke fill"/>
  </g>
</svg>
