<svg version="1.1" id="svg6714" xmlns:xlink="http://www.w3.org/1999/xlink" xmlns="http://www.w3.org/2000/svg" viewBox="0 0 300 92.081978">
  <defs id="defs6711">
    <linearGradient xlink:href="#linearGradient5756" id="linearGradient5760" gradientUnits="userSpaceOnUse" gradientTransform="matrix(.55363 0 0 .57761 666.61194 683.56956)" x1="326.34528" y1="-188.95346" x2="326.34528" y2="-102.39491"/>
    <linearGradient id="linearGradient5756">
      <stop style="stop-color:#a7a7a7;stop-opacity:1" offset="0" id="stop5746"/>
      <stop style="stop-color:#9c9c9c;stop-opacity:1" offset=".24530831" id="stop5748"/>
      <stop style="stop-color:#e2e2e2;stop-opacity:1" offset=".49765414" id="stop5750"/>
      <stop style="stop-color:#737373;stop-opacity:1" offset=".75" id="stop5752"/>
      <stop style="stop-color:#787878;stop-opacity:1" offset="1" id="stop5754"/>
    </linearGradient>
    <linearGradient xlink:href="#linearGradient5756" id="linearGradient32969" x1="326.34528" y1="-188.95346" x2="326.34528" y2="-102.39491" gradientUnits="userSpaceOnUse" gradientTransform="matrix(.55365 0 0 .57758 423.52487 683.56519)"/>
  </defs>
  <g id="sample-compartment" transform="translate(-648.49643 -623.56222) scale(1.1005)">
    <path id="valve-2" style="fill:#000;stroke-width:3.11565" d="m2861.3125 2360.3125-.4473 37.2617-24.3574-.2656-.1406 11.8399 24.3574.2636-.207 17.2695-7.9258-.047-16.2129 16.9981 44.3242 10.8242 43.6055-10.3086-17.3731-17.1953-8.1113-.047.2051-17.0781 25.084.2734.1426-11.8379-25.086-.2734.4473-37.2617z" transform="matrix(.26706 0 0 .26706 -10.539303 -5.191766)"/>
    <path id="valve-1" style="fill:#000;stroke-width:3.11565" d="m2562.3242 2360.3125-.4453 37.2617-24.3574-.2656-.1426 11.8398 24.3574.2637-.2051 17.2695-7.9277-.045-16.2129 16.9981 44.3242 10.8242 43.6055-10.3085-17.3731-17.1954-8.1093-.047.2031-17.0781 25.084.2735.1426-11.8379-25.084-.2735.4453-37.2617z" transform="matrix(.26706 0 0 .26706 -10.539303 -5.191766)"/>
    <path style="fill:none;fill-opacity:1;stroke:#000;stroke-width:5.81196;stroke-linecap:square;stroke-dasharray:none;stroke-opacity:1;paint-order:markers stroke fill" id="rect7077" d="M604.66223 575.60297h240.8856v48.942009h-240.8856z"/>
    <rect style="fill:url(#linearGradient5760);fill-opacity:1;stroke:#0047af;stroke-width:3.89934;stroke-dasharray:none;stroke-opacity:1;paint-order:markers stroke fill" id="rect5758" width="9.8007936" height="50.518093" x="842.17169" y="574.68811" ry="1.3120925"/>
    <rect style="fill:#009ee0;fill-opacity:1;stroke:#000;stroke-width:4.20966;stroke-linecap:square;stroke-dasharray:none;stroke-opacity:1;paint-order:markers stroke fill" id="rect6170" width="18.48822" height="11.107299" x="841.28381" y="619.67188" ry="1.8190751"/>
    <rect style="fill:url(#linearGradient32969);fill-opacity:1;stroke:#0047af;stroke-width:3.89932;stroke-dasharray:none;stroke-opacity:1;paint-order:markers stroke fill" id="rect32961" width="9.801177" height="50.515453" x="599.09149" y="574.68939" ry="1.312024"/>
    <rect style="fill:#009ee0;fill-opacity:1;stroke:#000;stroke-width:4.15627;stroke-linecap:square;stroke-dasharray:none;stroke-opacity:1;paint-order:markers stroke fill" id="rect6168" width="17.936167" height="11.160557" x="841.25751" y="568.69476" ry="1.8277973"/>
    <rect style="fill:#009ee0;fill-opacity:1;stroke:#000;stroke-width:4.20966;stroke-linecap:square;stroke-dasharray:none;stroke-opacity:1;paint-order:markers stroke fill" id="rect10251" width="18.48822" height="11.107299" x="591.3786" y="619.67188" ry="1.8190751"/>
    <rect style="fill:#009ee0;fill-opacity:1;stroke:#000;stroke-width:4.15627;stroke-linecap:square;stroke-dasharray:none;stroke-opacity:1;paint-order:markers stroke fill" id="rect8256-0" width="17.936167" height="11.160557" x="592.09601" y="568.69476" ry="1.8277973"/>
  </g>
</svg>
