<svg version="1.1" id="svg15208" xmlns:xlink="http://www.w3.org/1999/xlink" xmlns="http://www.w3.org/2000/svg" viewBox="0 0 300 292.41956">
  <defs id="defs15205">
    <linearGradient id="linearGradient2854">
      <stop style="stop-color:#fff9ce;stop-opacity:1" offset="0" id="stop2850"/>
      <stop style="stop-color:#ffe388;stop-opacity:1" offset=".2" id="stop2858"/>
      <stop style="stop-color:#ffdf29;stop-opacity:1" offset=".40000001" id="stop2860"/>
      <stop style="stop-color:#ffcc03;stop-opacity:1" offset=".60000002" id="stop2864"/>
      <stop style="stop-color:#fed400;stop-opacity:1" offset=".80000001" id="stop2862"/>
      <stop style="stop-color:#ffd301;stop-opacity:1" offset="1" id="stop2852"/>
    </linearGradient>
    <linearGradient xlink:href="#linearGradient2854" id="linearGradient2856" x1="-165.59645" y1="25.455702" x2="-165.59645" y2="-26.64489" gradientUnits="userSpaceOnUse" gradientTransform="matrix(.34296 0 0 .36894 -12.996605 12.27906)"/>
    <linearGradient xlink:href="#linearGradient2854" id="linearGradient2870" gradientUnits="userSpaceOnUse" x1="-165.59645" y1="25.455702" x2="-165.59645" y2="-26.64489" gradientTransform="matrix(.34296 0 0 .36894 28.408332 37.974448)"/>
    <linearGradient xlink:href="#linearGradient2854" id="linearGradient2874" gradientUnits="userSpaceOnUse" gradientTransform="matrix(.34296 0 0 .36894 77.113752 39.524838)" x1="-165.59645" y1="25.455702" x2="-165.59645" y2="-26.64489"/>
    <linearGradient xlink:href="#linearGradient2854" id="linearGradient2878" gradientUnits="userSpaceOnUse" gradientTransform="matrix(.34296 0 0 .36894 120.06908 16.514805)" x1="-165.59645" y1="25.455702" x2="-165.59645" y2="-26.64489"/>
    <linearGradient xlink:href="#linearGradient2854" id="linearGradient2882" gradientUnits="userSpaceOnUse" gradientTransform="matrix(.34296 0 0 .36894 145.76447 -24.890132)" x1="-165.59645" y1="25.455702" x2="-165.59645" y2="-26.64489"/>
    <linearGradient xlink:href="#linearGradient2854" id="linearGradient2886" gradientUnits="userSpaceOnUse" gradientTransform="matrix(.34296 0 0 .36894 147.31486 -73.595553)" x1="-165.59645" y1="25.455702" x2="-165.59645" y2="-26.64489"/>
    <linearGradient xlink:href="#linearGradient2854" id="linearGradient2890" gradientUnits="userSpaceOnUse" gradientTransform="matrix(.34296 0 0 .36894 124.30482 -116.55087)" x1="-165.59645" y1="25.455702" x2="-165.59645" y2="-26.64489"/>
  </defs>
  <g id="tungsten" transform="matrix(2.40594 0 0 2.40594 -4.9783331 -15.16927)">
    <path style="fill:#fede94;stroke-width:.355713" d="M56.816171 75.947286c1.15701 1.097116 3.038627 1.097116 4.195637 0 1.168816-1.086484 1.168816-2.857165 0-3.943649l-.81795-.782282h9.139493l-6.720324 6.323077c-.549359.521635-.864806 1.238413-.864806 1.97714v18.773406H51.486767v-9.767043c0-.999373-.572602-1.922953-1.49607-2.42264-8.835851-4.780118-14.31726-13.688739-14.31726-23.260293 0-14.786198 12.774335-26.812631 28.482147-26.812631s28.493953 12.026776 28.493953 26.812631c0 9.853807-5.726756 18.89275-14.936349 23.597076-.958518.47808-1.554363 1.423266-1.554363 2.45522v9.39733h-8.473549V80.672875l10.915961-10.266726c.841563-.803889 1.098717-1.99909.642702-3.042018-.456016-1.042929-1.542557-1.727469-2.746423-1.727469H53.029324c-1.203866 0-2.290776.68454-2.746423 1.727469-.455646 1.042928-.210298 2.238129.642702 3.042018z" id="path342"/>
    <path style="fill:#2d213f;stroke-width:.170392;stroke-dasharray:none" d="M35.673437 62.845345c0 9.571211 5.481409 18.479832 14.31726 23.260293.923468.499687 1.49607 1.423267 1.49607 2.42264v9.7667h10.261454V79.521572c0-.738727.315447-1.455848.864806-1.97714l6.720324-6.323077h-9.139493l.81795.782282c1.168816 1.086484 1.168816 2.857165 0 3.943649-1.15701 1.097116-3.038627 1.097116-4.195637 0l-5.890568-5.540794c-.853-.803889-1.098717-1.99909-.642702-3.042018.455647-1.042929 1.542557-1.727469 2.746423-1.727469h23.468192c1.203866 0 2.290776.68454 2.746423 1.727469.455646 1.042928.198861 2.238129-.642702 3.042018L67.685276 80.673218v17.62176h8.473549v-9.397337c0-1.031954.596214-1.97714 1.554363-2.45522 9.209593-4.704326 14.936349-13.743269 14.936349-23.597076 0-14.786198-12.786141-26.812631-28.493953-26.812631S35.673437 48.059147 35.673437 62.845345zm62.913525 0c0 11.342235-6.276116 21.793471-16.491082 27.660073v10.592532c0 .18486-.02324.36937-.05829.54325 1.075105 1.15164 1.753225 2.6507 1.753225 4.30203v.21744c0 1.39068-.467453 2.67265-1.26216 3.73719.794707 1.0539 1.26216 2.33587 1.26216 3.72656v.21743c0 3.60687-3.108727 6.52919-6.930623 6.52919H73.70461v.23904c0 3.98721-3.447787 7.23569-7.69028 7.23569h-3.938482c-4.242493 0-7.69028-3.24848-7.69028-7.23569v-.23904h-3.950289c-3.821895 0-6.930621-2.92232-6.930621-6.52919v-.21743c0-1.39069.479258-2.67266 1.262159-3.72656-.782901-1.06454-1.262159-2.34651-1.262159-3.73719v-.21744c0-1.81423.794706-3.45493 2.068671-4.63882-.01181-.0652-.02324-.14129-.02324-.20646V90.092499c-9.794008-5.931764-15.812969-16.23107-15.812969-27.247154-.000738-17.860798 15.438483-32.396981 34.418833-32.396981 18.991787 0 34.431009 14.536183 34.431009 32.396981zM77.853387 113.84151v-.21744c0-.51066-.44421-.93421-.993568-.93421H50.434538c-.549359 0-.993568.42355-.993568.93421v.21744c0 .52163.444209.94518.993568.94518h26.425281c.550096 0 .993568-.42355.993568-.94518zm0-7.68084v-.21744c0-.51066-.44421-.93421-.993568-.93421H50.434538c-.549359 0-.993568.42355-.993568.93421v.21744c0 .52163.444209.94518.993568.94518h26.425281c.550096 0 .993568-.42389.993568-.94518zm-10.086205 14.44941v-.23904H60.32225v.23904c0 .90163.794707 1.64036 1.753225 1.64036h3.938482c.970324 0 1.753225-.73873 1.753225-1.64036z" id="path348"/>
    <path style="fill:#c5cbcf;stroke-width:.355713" d="M76.860188 114.78669H50.434906c-.549358 0-.993567-.42355-.993567-.94518v-.21744c0-.51066.444209-.93421.993567-.93421h26.425282c.549358 0 .993568.42355.993568.93421v.21744c-.000369.52163-.443841.94518-.993568.94518z" id="path354"/>
    <path style="fill:#eaeeef;stroke-width:.355713" d="M76.860188 107.10585H50.434906c-.549358 0-.993567-.42355-.993567-.94518v-.21744c0-.51066.444209-.93421.993567-.93421h26.425282c.549358 0 .993568.42355.993568.93421v.21744c-.000369.52129-.443841.94518-.993568.94518z" id="path360"/>
    <path style="fill:#c5cbcf;stroke-width:.355713" d="M67.767182 120.37104v.23904c0 .90163-.782901 1.64036-1.753225 1.64036h-3.938482c-.958518 0-1.753225-.73873-1.753225-1.64036v-.23904z" id="path366"/>
    <path style="fill:#f2ce75;stroke-width:.355713" d="M49.990697 86.105295c.923468.499687 1.49607 1.423267 1.49607 2.42264v9.766693h10.261454V79.521229c0-.738727.315447-1.455848.864806-1.97714l.530542-.498658c-10.513812-.22395-19.446695-2.914782-25.995092-5.730792 2.185628 6.148169 6.700402 11.468443 12.84222 14.790656z" id="path377"/>
    <path style="fill:#f2ce75;stroke-width:.355713" d="m71.968722 76.644858-4.283446 4.02836v17.62176h8.473549v-9.397337c0-1.031954.596214-1.97714 1.554363-2.45522 6.37905-3.258081 11.081986-8.596874 13.373869-14.844844-6.678264 2.797491-13.091996 4.3672-19.118335 5.047281z" id="path383"/>
    <rect style="fill:url(#linearGradient2856);fill-opacity:1;stroke-width:.117475;stroke-dasharray:none;paint-order:markers stroke fill" id="rect2773" width="5.3114047" height="19.475153" x="-72.318115" y="2.0691872" ry="2.6557028" transform="rotate(-90)"/>
    <rect style="fill:url(#linearGradient2870);fill-opacity:1;stroke-width:.117475;stroke-dasharray:none;paint-order:markers stroke fill" id="rect2866" width="5.3114047" height="19.475153" x="-30.913179" y="27.764576" ry="2.6557028" transform="rotate(-60)"/>
    <rect style="fill:url(#linearGradient2874);fill-opacity:1;stroke-width:.117475;stroke-dasharray:none;paint-order:markers stroke fill" id="rect2872" width="5.3114047" height="19.475153" x="17.79224" y="29.314964" ry="2.6557031" transform="rotate(-30)"/>
    <rect style="fill:url(#linearGradient2878);fill-opacity:1;stroke-width:.117475;stroke-dasharray:none;paint-order:markers stroke fill" id="rect2876" width="5.3114047" height="19.475153" x="60.74757" y="6.3049335" ry="2.6557028"/>
    <rect style="fill:url(#linearGradient2882);fill-opacity:1;stroke-width:.117475;stroke-dasharray:none;paint-order:markers stroke fill" id="rect2880" width="5.3114047" height="19.475153" x="86.442955" y="-35.100002" ry="2.6557031" transform="rotate(30)"/>
    <rect style="fill:url(#linearGradient2886);fill-opacity:1;stroke-width:.117475;stroke-dasharray:none;paint-order:markers stroke fill" id="rect2884" width="5.3114047" height="19.475153" x="87.993347" y="-83.80542" ry="2.6557028" transform="rotate(60)"/>
    <rect style="fill:url(#linearGradient2890);fill-opacity:1;stroke-width:.117475;stroke-dasharray:none;paint-order:markers stroke fill" id="rect2888" width="5.3114047" height="19.475153" x="64.983315" y="-126.76075" ry="2.6557028" transform="rotate(90)"/>
  </g>
</svg>
