<svg viewBox="0 0 300 292.42" version="1.1" id="svg15208" xmlns:xlink="http://www.w3.org/1999/xlink" xmlns="http://www.w3.org/2000/svg">
    <defs id="defs15205">
        <linearGradient id="linearGradient2854">
            <stop offset="0" id="stop2850" stop-color="#fff9ce" stop-opacity="1"/>
            <stop offset=".2" id="stop2858" stop-color="#ffe388" stop-opacity="1"/>
            <stop offset=".4" id="stop2860" stop-color="#ffdf29" stop-opacity="1"/>
            <stop offset=".6" id="stop2864" stop-color="#ffcc03" stop-opacity="1"/>
            <stop offset=".8" id="stop2862" stop-color="#fed400" stop-opacity="1"/>
            <stop offset="1" id="stop2852" stop-color="#ffd301" stop-opacity="1"/>
        </linearGradient>
        <linearGradient xlink:href="#linearGradient2854" id="linearGradient2856" x1="-165.596" y1="25.456" x2="-165.596" y2="-26.645" gradientUnits="userSpaceOnUse" gradientTransform="matrix(.34296 0 0 .36894 -12.997 12.28)"/>
        <linearGradient xlink:href="#linearGradient2854" id="linearGradient2870" gradientUnits="userSpaceOnUse" x1="-165.596" y1="25.456" x2="-165.596" y2="-26.645" gradientTransform="matrix(.34296 0 0 .36894 28.408 37.974)"/>
        <linearGradient xlink:href="#linearGradient2854" id="linearGradient2874" gradientUnits="userSpaceOnUse" gradientTransform="matrix(.34296 0 0 .36894 77.114 39.525)" x1="-165.596" y1="25.456" x2="-165.596" y2="-26.645"/>
        <linearGradient xlink:href="#linearGradient2854" id="linearGradient2878" gradientUnits="userSpaceOnUse" gradientTransform="matrix(.34296 0 0 .36894 120.07 16.515)" x1="-165.596" y1="25.456" x2="-165.596" y2="-26.645"/>
        <linearGradient xlink:href="#linearGradient2854" id="linearGradient2882" gradientUnits="userSpaceOnUse" gradientTransform="matrix(.34296 0 0 .36894 145.764 -24.89)" x1="-165.596" y1="25.456" x2="-165.596" y2="-26.645"/>
        <linearGradient xlink:href="#linearGradient2854" id="linearGradient2886" gradientUnits="userSpaceOnUse" gradientTransform="matrix(.34296 0 0 .36894 147.315 -73.596)" x1="-165.596" y1="25.456" x2="-165.596" y2="-26.645"/>
        <linearGradient xlink:href="#linearGradient2854" id="linearGradient2890" gradientUnits="userSpaceOnUse" gradientTransform="matrix(.34296 0 0 .36894 124.305 -116.55)" x1="-165.596" y1="25.456" x2="-165.596" y2="-26.645"/>
    </defs>
    <g id="tungsten" transform="translate(-4.978 -15.17) scale(2.40594)">
        <path d="M56.816 75.947c1.157 1.097 3.039 1.097 4.196 0 1.169-1.086 1.169-2.857 0-3.943l-.818-.783h9.14l-6.721 6.323a2.74 2.74 0 00-.865 1.978v18.773H51.487v-9.767c0-1-.573-1.923-1.496-2.423-8.836-4.78-14.318-13.688-14.318-23.26 0-14.786 12.775-26.813 28.483-26.813 15.707 0 28.494 12.027 28.494 26.813 0 9.854-5.727 18.893-14.937 23.597-.958.478-1.554 1.423-1.554 2.455v9.398h-8.474V80.673l10.916-10.267c.842-.804 1.099-1.999.643-3.042-.456-1.043-1.543-1.727-2.746-1.727H53.029c-1.204 0-2.29.684-2.746 1.727-.456 1.043-.21 2.238.643 3.042z" id="path342" fill="#fede94" stroke-width=".356"/>
        <path d="M35.673 62.845c0 9.572 5.482 18.48 14.318 23.26.923.5 1.496 1.424 1.496 2.423v9.767h10.261V79.522c0-.74.316-1.456.865-1.978l6.72-6.323h-9.14l.819.783c1.169 1.086 1.169 2.857 0 3.943-1.157 1.097-3.039 1.097-4.196 0l-5.89-5.54c-.853-.804-1.1-2-.643-3.043.456-1.042 1.542-1.727 2.746-1.727h23.469c1.203 0 2.29.685 2.746 1.727.456 1.043.199 2.239-.643 3.042L67.685 80.673v17.622h8.474v-9.397c0-1.032.596-1.977 1.554-2.456C86.923 81.738 92.65 72.7 92.65 62.845c0-14.786-12.787-26.812-28.494-26.812-15.708 0-28.483 12.026-28.483 26.812zm62.914 0c0 11.343-6.276 21.794-16.491 27.66v10.593c0 .185-.023.37-.058.543 1.075 1.152 1.753 2.65 1.753 4.302v.218c0 1.39-.468 2.672-1.262 3.737a6.155 6.155 0 011.262 3.726v.218c0 3.607-3.109 6.529-6.93 6.529h-3.156v.24c0 3.986-3.448 7.235-7.69 7.235h-3.94c-4.242 0-7.69-3.249-7.69-7.236v-.239h-3.95c-3.822 0-6.93-2.922-6.93-6.53v-.217c0-1.39.479-2.672 1.262-3.726-.783-1.065-1.262-2.347-1.262-3.737v-.218c0-1.814.794-3.455 2.068-4.639a1.229 1.229 0 01-.023-.206V90.092c-9.794-5.931-15.813-16.23-15.813-27.247 0-17.86 15.439-32.397 34.419-32.397 18.992 0 34.431 14.537 34.431 32.397zm-20.734 50.997v-.218c0-.51-.444-.934-.993-.934H50.435c-.55 0-.994.423-.994.934v.218c0 .521.444.945.994.945H76.86c.55 0 .993-.424.993-.945zm0-7.681v-.218c0-.51-.444-.934-.993-.934H50.435c-.55 0-.994.424-.994.934v.218c0 .521.444.945.994.945H76.86c.55 0 .993-.424.993-.945zm-10.086 14.45v-.24h-7.445v.24c0 .9.795 1.64 1.753 1.64h3.939c.97 0 1.753-.74 1.753-1.64z" id="path348" fill="#2d213f" stroke-width=".17" stroke-dasharray="none"/>
        <path d="M76.86 114.787H50.435c-.55 0-.994-.424-.994-.945v-.218c0-.51.445-.934.994-.934H76.86c.55 0 .994.423.994.934v.218c0 .521-.444.945-.994.945z" id="path354" fill="#c5cbcf" stroke-width=".356"/>
        <path d="M76.86 107.106H50.435c-.55 0-.994-.424-.994-.945v-.218c0-.51.445-.934.994-.934H76.86c.55 0 .994.424.994.934v.218c0 .521-.444.945-.994.945z" id="path360" fill="#eaeeef" stroke-width=".356"/>
        <path d="M67.767 120.371v.24c0 .9-.783 1.64-1.753 1.64h-3.939c-.958 0-1.753-.74-1.753-1.64v-.24z" id="path366" fill="#c5cbcf" stroke-width=".356"/>
        <path d="M49.99 86.105c.924.5 1.497 1.424 1.497 2.423v9.767h10.261V79.52c0-.738.316-1.456.865-1.977l.53-.499c-10.513-.224-19.446-2.914-25.995-5.73 2.186 6.148 6.7 11.468 12.843 14.79z" id="path377" fill="#f2ce75" stroke-width=".356"/>
        <path d="M71.969 76.645l-4.284 4.028v17.622h8.474v-9.397c0-1.032.596-1.977 1.554-2.456 6.38-3.258 11.082-8.596 13.374-14.844-6.678 2.797-13.092 4.367-19.118 5.047z" id="path383" fill="#f2ce75" stroke-width=".356"/>
        <rect id="rect2773" width="5.311" height="19.475" x="-72.318" y="2.069" ry="2.656" transform="rotate(-90)" fill="url(#linearGradient2856)" fill-opacity="1" stroke-width=".117" stroke-dasharray="none" paint-order="markers stroke fill"/>
        <rect id="rect2866" width="5.311" height="19.475" x="-30.913" y="27.765" ry="2.656" transform="rotate(-60)" fill="url(#linearGradient2870)" fill-opacity="1" stroke-width=".117" stroke-dasharray="none" paint-order="markers stroke fill"/>
        <rect id="rect2872" width="5.311" height="19.475" x="17.792" y="29.315" ry="2.656" transform="rotate(-30)" fill="url(#linearGradient2874)" fill-opacity="1" stroke-width=".117" stroke-dasharray="none" paint-order="markers stroke fill"/>
        <rect id="rect2876" width="5.311" height="19.475" x="60.748" y="6.305" ry="2.656" fill="url(#linearGradient2878)" fill-opacity="1" stroke-width=".117" stroke-dasharray="none" paint-order="markers stroke fill"/>
        <rect id="rect2880" width="5.311" height="19.475" x="86.443" y="-35.1" ry="2.656" transform="rotate(30)" fill="url(#linearGradient2882)" fill-opacity="1" stroke-width=".117" stroke-dasharray="none" paint-order="markers stroke fill"/>
        <rect id="rect2884" width="5.311" height="19.475" x="87.993" y="-83.805" ry="2.656" transform="rotate(60)" fill="url(#linearGradient2886)" fill-opacity="1" stroke-width=".117" stroke-dasharray="none" paint-order="markers stroke fill"/>
        <rect id="rect2888" width="5.311" height="19.475" x="64.983" y="-126.761" ry="2.656" transform="rotate(90)" fill="url(#linearGradient2890)" fill-opacity="1" stroke-width=".117" stroke-dasharray="none" paint-order="markers stroke fill"/>
    </g>
</svg>
