<svg xmlns="http://www.w3.org/2000/svg" xmlns:xlink="http://www.w3.org/1999/xlink" id="svg5" version="1.1" viewBox="0 0 130.901 300">
  <defs id="defs2">
    <linearGradient id="linearGradient11218">
      <stop id="stop11214" offset="0" style="stop-color:#ffc600;stop-opacity:1"/>
      <stop id="stop11222" offset=".5" style="stop-color:gold;stop-opacity:1"/>
      <stop id="stop11224" offset=".75" style="stop-color:#ffff7c;stop-opacity:1"/>
      <stop id="stop11226" offset=".875" style="stop-color:#ff0;stop-opacity:1"/>
      <stop id="stop11216" offset="1" style="stop-color:#ffb100;stop-opacity:1"/>
    </linearGradient>
    <linearGradient id="linearGradient19515">
      <stop id="stop19511" offset="0" style="stop-color:#7d0f0f;stop-opacity:1"/>
      <stop id="stop19519" offset=".5" style="stop-color:#b70f0f;stop-opacity:1"/>
      <stop id="stop19513" offset=".75" style="stop-color:#740f0f;stop-opacity:1"/>
    </linearGradient>
    <linearGradient xlink:href="#linearGradient19515" id="linearGradient19517" x1="68.874" x2="263.874" y1="-151.046" y2="-151.046" gradientTransform="matrix(1.54437 0 0 1.54413 -32.483 64.135)" gradientUnits="userSpaceOnUse"/>
    <linearGradient xlink:href="#linearGradient11218" id="linearGradient11220" x1="158.47" x2="238.257" y1="35.427" y2="322.885" gradientUnits="userSpaceOnUse"/>
  </defs>
  <g id="flat-rotatable-mirror" transform="rotate(15 235.756 -369.282) scale(.99617)">
    <path id="ellipse4005" d="M239.916 168.089a150.533 50.178 75 0 0-49.223-109.232l-8.356-31.184-29.826 7.992v.003a150.533 50.178 75 0 0-.024.003 150.533 50.178 75 0 0-9.507 158.391 150.533 50.178 75 0 0 87.43 132.417 150.533 50.178 75 0 0 .022-.006l29.827-7.992-8.275-30.88a150.533 50.178 75 0 0-12.068-119.512z" style="fill:url(#linearGradient11220);fill-opacity:1;fill-rule:evenodd;stroke:none;stroke-width:15.6462;stroke-dasharray:none"/>
    <ellipse id="path4003" cx="224.46" cy="-169.1" rx="150.576" ry="50.184" style="fill:url(#linearGradient19517);fill-opacity:1;fill-rule:evenodd;stroke-width:15.65" transform="rotate(75)"/>
  </g>
</svg>
