<svg xmlns="http://www.w3.org/2000/svg" xmlns:xlink="http://www.w3.org/1999/xlink" id="svg4511" version="1.1" viewBox="0 0 238.24 300">
  <defs id="defs4508">
    <linearGradient id="linearGradient73318">
      <stop id="stop73306" offset="0" style="stop-color:#0006fa;stop-opacity:1"/>
      <stop id="stop73308" offset=".201" style="stop-color:#0006dc;stop-opacity:1"/>
      <stop id="stop73310" offset=".4" style="stop-color:#0006b4;stop-opacity:1"/>
      <stop id="stop73312" offset=".6" style="stop-color:#0006a0;stop-opacity:1"/>
      <stop id="stop73314" offset=".8" style="stop-color:#0006b4;stop-opacity:1"/>
      <stop id="stop73316" offset="1" style="stop-color:#0006d2;stop-opacity:1"/>
    </linearGradient>
    <linearGradient id="linearGradient73304">
      <stop id="stop73292" offset="0" style="stop-color:#0064fc;stop-opacity:1"/>
      <stop id="stop73294" offset=".201" style="stop-color:#0032fc;stop-opacity:1"/>
      <stop id="stop73296" offset=".4" style="stop-color:#0006fc;stop-opacity:1"/>
      <stop id="stop73298" offset=".6" style="stop-color:#0006b4;stop-opacity:1"/>
      <stop id="stop73300" offset=".8" style="stop-color:#0006eb;stop-opacity:1"/>
      <stop id="stop73302" offset="1" style="stop-color:#0006fc;stop-opacity:1"/>
    </linearGradient>
    <linearGradient id="linearGradient73290">
      <stop id="stop73278" offset="0" style="stop-color:#0006ff;stop-opacity:1"/>
      <stop id="stop73280" offset=".2" style="stop-color:#0006f0;stop-opacity:1"/>
      <stop id="stop73282" offset=".4" style="stop-color:#0006dc;stop-opacity:1"/>
      <stop id="stop73284" offset=".6" style="stop-color:#0006c8;stop-opacity:1"/>
      <stop id="stop73286" offset=".8" style="stop-color:#0006b4;stop-opacity:1"/>
      <stop id="stop73288" offset="1" style="stop-color:#0006a0;stop-opacity:1"/>
    </linearGradient>
    <linearGradient id="linearGradient51871">
      <stop id="stop51867" offset="0" style="stop-color:#000;stop-opacity:1"/>
      <stop id="stop51875" offset=".4" style="stop-color:#676767;stop-opacity:1"/>
      <stop id="stop51877" offset=".6" style="stop-color:#3f3f3f;stop-opacity:1"/>
      <stop id="stop51879" offset=".8" style="stop-color:#333;stop-opacity:1"/>
      <stop id="stop51869" offset="1" style="stop-color:#262626;stop-opacity:1"/>
    </linearGradient>
    <linearGradient id="linearGradient48050">
      <stop id="stop48046" offset="0" style="stop-color:#fac000;stop-opacity:1"/>
      <stop id="stop48054" offset=".2" style="stop-color:#ffd645;stop-opacity:1"/>
      <stop id="stop48056" offset=".4" style="stop-color:#ffc505;stop-opacity:1"/>
      <stop id="stop48058" offset=".6" style="stop-color:#ffc80b;stop-opacity:1"/>
      <stop id="stop48060" offset=".8" style="stop-color:#ffd038;stop-opacity:1"/>
      <stop id="stop48048" offset="1" style="stop-color:#bd9100;stop-opacity:1"/>
    </linearGradient>
    <linearGradient id="linearGradient30571">
      <stop id="stop30567" offset="0" style="stop-color:#fff;stop-opacity:1"/>
      <stop id="stop30575" offset=".201" style="stop-color:#e5e5e5;stop-opacity:1"/>
      <stop id="stop30577" offset=".4" style="stop-color:#ccc;stop-opacity:1"/>
      <stop id="stop30579" offset=".6" style="stop-color:#b2b2b2;stop-opacity:1"/>
      <stop id="stop30581" offset=".8" style="stop-color:#999;stop-opacity:1"/>
      <stop id="stop30569" offset="1" style="stop-color:#b2b2b2;stop-opacity:1"/>
    </linearGradient>
    <linearGradient id="linearGradient10014">
      <stop id="stop10010" offset="0" style="stop-color:#ffc242;stop-opacity:1"/>
      <stop id="stop10018" offset=".2" style="stop-color:#c08a00;stop-opacity:1"/>
      <stop id="stop10020" offset=".4" style="stop-color:#c09100;stop-opacity:1"/>
      <stop id="stop10022" offset=".6" style="stop-color:#eab100;stop-opacity:1"/>
      <stop id="stop10024" offset=".8" style="stop-color:#d49000;stop-opacity:1"/>
      <stop id="stop10012" offset="1" style="stop-color:#f79e00;stop-opacity:1"/>
    </linearGradient>
    <linearGradient xlink:href="#linearGradient73304" id="linearGradient5174" x1="37.283" x2="95.537" y1="64.209" y2="64.468" gradientTransform="translate(-44.594 -17.665) scale(2.70567)" gradientUnits="userSpaceOnUse"/>
    <linearGradient xlink:href="#linearGradient73318" id="linearGradient7094" x1="36.506" x2="96.573" y1="116.509" y2="116.768" gradientTransform="translate(-44.594 -17.665) scale(2.70567)" gradientUnits="userSpaceOnUse"/>
    <linearGradient xlink:href="#linearGradient10014" id="linearGradient10016" x1="50.746" x2="81.038" y1="15.146" y2="15.146" gradientTransform="translate(-44.594 -17.665) scale(2.70567)" gradientUnits="userSpaceOnUse"/>
    <linearGradient xlink:href="#linearGradient30571" id="linearGradient30573" x1="37.801" x2="83.627" y1="38.577" y2="38.577" gradientTransform="translate(-44.594 -17.665) scale(2.70567)" gradientUnits="userSpaceOnUse"/>
    <linearGradient xlink:href="#linearGradient73290" id="linearGradient47287" x1="84.663" x2="113.143" y1="71.977" y2="71.977" gradientTransform="translate(-44.594 -17.665) scale(2.70567)" gradientUnits="userSpaceOnUse"/>
    <linearGradient xlink:href="#linearGradient48050" id="linearGradient48052" x1="82.088" x2="115.718" y1="71.977" y2="71.977" gradientTransform="translate(-44.594 -17.665) scale(2.70567)" gradientUnits="userSpaceOnUse"/>
    <linearGradient xlink:href="#linearGradient51871" id="linearGradient51873" x1="87.133" x2="108.084" y1="40.778" y2="40.778" gradientTransform="translate(-44.594 -17.665) scale(2.70567)" gradientUnits="userSpaceOnUse"/>
    <path id="rect41333" d="M168.311 138.954h120.362v45.013H168.311z"/>
    <path id="rect35313" d="M194.732 140.911H311.18v40.121H194.732z"/>
    <path id="rect32089" d="M157.547 104.705h147.761v87.091H157.547z"/>
  </defs>
  <g id="insb" transform="translate(-26.144 -10.356)">
    <path id="rect49618" d="M191.16 75.182v34.973h39.348v-.217a15.006 17.486 0 0 0 2.333.217 15.006 17.486 0 0 0 15.006-17.487 15.006 17.486 0 0 0-15.006-17.486 15.006 17.486 0 0 0-2.333.215v-.215z" style="fill:url(#linearGradient51873);fill-opacity:1;stroke:none;stroke-width:6.72325;stroke-linecap:square;stroke-dasharray:none;stroke-opacity:1;paint-order:markers stroke fill"/>
    <path id="rect44375" d="M184.477 142.755h77.057v68.651h-77.057z" style="fill:url(#linearGradient47287);fill-opacity:1;stroke:url(#linearGradient48052);stroke-width:5.70053;stroke-linecap:square;stroke-dasharray:none;stroke-opacity:1;paint-order:markers stroke fill"/>
    <ellipse id="path9282" cx="133.689" cy="23.316" rx="40.981" ry="12.96" style="fill:url(#linearGradient10016);fill-opacity:1;stroke-width:13.7846;stroke-linecap:square;paint-order:markers stroke fill"/>
    <path id="rect4995" d="M135.09 21.565a77.408 20.665 0 0 0-77.362 20.301h-.466v266.389H212.8V41.866h-.315a77.408 20.665 0 0 0-77.394-20.301Z" style="fill:url(#linearGradient5174);fill-opacity:1;stroke-width:19.1554;stroke-linecap:square;paint-order:markers stroke fill;stroke:none"/>
    <path id="path5000" d="M135.093 285.661a80.894 1.78 0 0 0-80.847 1.749h-.486v22.946H216.3V287.41h-.328a80.894 1.78 0 0 0-80.88-1.749z" style="fill:url(#linearGradient7094);fill-opacity:1;stroke-width:5.7472;stroke-linecap:square;paint-order:markers stroke fill"/>
    <ellipse id="path12977" cx="63.745" cy="216.38" rx="42.382" ry="65.849" style="fill:#e7a600;fill-opacity:1;stroke-width:18.3877;stroke-linecap:square;paint-order:markers stroke fill;stroke:none" transform="rotate(-1.274)"/>
    <ellipse id="path21707" cx="60.719" cy="217.266" rx="25.219" ry="41.681" style="fill:#fff;fill-opacity:1;stroke-width:22.6585;stroke-linecap:square;paint-order:markers stroke fill;stroke:none" transform="rotate(-1.794)"/>
    <ellipse id="ellipse26081" cx="62.04" cy="216.619" rx="15.07" ry="22.061" style="fill:#e7a600;fill-opacity:1;stroke-width:6.34651;stroke-linecap:square;paint-order:markers stroke fill;stroke:none" transform="rotate(-1.201) skewX(.152)"/>
    <path id="rect28387" d="M57.683 46.783h123.992v79.859H57.683z" style="fill:url(#linearGradient30573);fill-opacity:1;stroke-width:16.123;stroke-linecap:square;paint-order:markers stroke fill"/>
    <g id="text32821" aria-label="TECHNOLOGIES" style="font-size:8.73245px;stroke-width:14.0929;stroke-linecap:square;paint-order:markers stroke fill" transform="scale(1.01305 .98712)">
      <path id="path974" d="M111.417 109.227h-2.268v5.599h-.844v-5.599h-2.269v-.75h5.381z"/>
      <path id="path976" d="M116.453 114.826h-4.183v-6.35h4.183v.751h-3.339v1.74h3.339v.75h-3.339v2.358h3.339z"/>
      <path id="path978" d="M122.695 114.365q-.234.103-.426.192-.188.09-.495.188-.26.08-.567.136-.303.06-.67.06-.69 0-1.257-.192-.563-.196-.98-.61-.41-.405-.64-1.027-.23-.627-.23-1.454 0-.785.221-1.403.222-.618.64-1.045.405-.413.976-.63.576-.218 1.275-.218.512 0 1.019.123.512.124 1.134.435v1.002h-.064q-.524-.439-1.04-.64-.516-.2-1.105-.2-.481 0-.87.158-.383.154-.686.482-.294.32-.46.81-.162.486-.162 1.126 0 .67.179 1.15.183.483.469.786.298.315.695.469.4.149.844.149.61 0 1.143-.21.533-.208.997-.626h.06z"/>
      <path id="path980" d="M128.746 114.826h-.845v-3.109h-3.168v3.109h-.844v-6.35h.844v2.49h3.168v-2.49h.845z"/>
      <path id="path982" d="M135.295 114.826h-1.045l-3.01-5.68v5.68h-.789v-6.35h1.31l2.745 5.186v-5.185h.789z"/>
      <path id="path984" d="M141.716 109.206q.388.426.593 1.045.209.618.209 1.402 0 .785-.213 1.408-.21.618-.589 1.031-.392.431-.93.648-.532.218-1.219.218-.669 0-1.22-.222-.545-.222-.929-.644-.383-.422-.592-1.036-.205-.614-.205-1.403 0-.776.205-1.39.204-.618.597-1.057.375-.418.93-.64.558-.221 1.214-.221.683 0 1.224.226.546.221.925.635zm-.076 2.447q0-1.236-.555-1.906-.554-.673-1.513-.673-.968 0-1.523.673-.55.67-.55 1.906 0 1.25.563 1.915.563.66 1.51.66.946 0 1.505-.66.563-.665.563-1.915z"/>
      <path id="path986" d="M147.873 114.826h-4.016v-6.35h.844v5.6h3.172z"/>
      <path id="path988" d="M153.365 109.206q.388.426.593 1.045.209.618.209 1.402 0 .785-.213 1.408-.21.618-.589 1.031-.392.431-.93.648-.532.218-1.219.218-.67 0-1.22-.222-.545-.222-.929-.644-.383-.422-.592-1.036-.205-.614-.205-1.403 0-.776.205-1.39.204-.618.597-1.057.375-.418.93-.64.558-.221 1.214-.221.683 0 1.224.226.546.221.925.635zm-.076 2.447q0-1.236-.555-1.906-.554-.673-1.513-.673-.968 0-1.523.673-.55.67-.55 1.906 0 1.25.563 1.915.563.66 1.51.66.946 0 1.505-.66.563-.665.563-1.915z"/>
      <path id="path990" d="M160.802 114.357q-.52.239-1.139.418-.614.174-1.19.174-.741 0-1.36-.204-.618-.205-1.053-.614-.439-.414-.678-1.032-.239-.623-.239-1.454 0-1.522.887-2.4.891-.883 2.444-.883.541 0 1.104.132.567.128 1.22.44v1.001h-.077q-.133-.102-.384-.269-.252-.166-.495-.277-.294-.132-.67-.217-.37-.09-.844-.09-1.065 0-1.688.687-.618.682-.618 1.85 0 1.233.648 1.92.648.681 1.765.681.41 0 .814-.08.41-.082.717-.21v-1.556h-1.701v-.742h2.537z"/>
      <path id="path992" d="M164.515 114.826h-2.507v-.648h.832v-5.053h-.832v-.648h2.507v.648h-.831v5.053h.831z"/>
      <path id="path994" d="M170.135 114.826h-4.183v-6.35h4.183v.751h-3.338v1.74h3.338v.75h-3.338v2.358h3.338z"/>
      <path id="path996" d="M176.088 113.014q0 .37-.175.733-.17.362-.482.614-.341.273-.797.426-.452.154-1.092.154-.686 0-1.236-.128-.546-.128-1.113-.38v-1.057h.06q.481.4 1.112.618.631.218 1.186.218.784 0 1.22-.294.438-.295.438-.785 0-.422-.209-.623-.204-.2-.626-.31-.32-.086-.695-.142-.371-.055-.79-.14-.843-.18-1.253-.61-.405-.435-.405-1.13 0-.797.674-1.305.673-.511 1.71-.511.669 0 1.228.128.558.128.989.315v.998h-.06q-.362-.307-.955-.508-.588-.204-1.207-.204-.678 0-1.091.281-.41.282-.41.725 0 .397.205.623.205.226.72.345.274.06.777.145.503.085.853.175.707.187 1.065.567.359.38.359 1.062z"/>
    </g>
    <g id="text35311" aria-label="(215) 368-6900" style="font-size:13.3333px;white-space:pre;shape-inside:url(#rect35313);display:inline;fill:#565656;stroke-width:21.518;stroke-linecap:square;paint-order:markers stroke fill" transform="matrix(.62297 0 0 .55185 -8.879 38.006)">
      <path id="path999" d="M199.83 155.759h-1.49q-1.153-1.322-1.791-2.884-.638-1.563-.638-3.522 0-1.96.638-3.523.638-1.562 1.79-2.884h1.491v.065q-.527.476-1.01 1.1-.474.62-.884 1.446-.391.8-.638 1.764-.241.964-.241 2.032 0 1.113.234 2.037.24.925.645 1.758.39.8.891 1.445.502.651 1.003 1.1z"/>
      <path id="path1001" d="M208.398 153.076h-6.563v-1.36l1.367-1.172q.69-.586 1.283-1.165 1.25-1.211 1.712-1.921.462-.716.462-1.543 0-.755-.5-1.178-.496-.43-1.388-.43-.592 0-1.282.208-.69.209-1.348.638h-.065v-1.367q.462-.228 1.23-.417.775-.188 1.498-.188 1.49 0 2.337.722.847.716.847 1.947 0 .553-.144 1.035-.136.475-.41.905-.254.404-.599.794-.338.39-.827.866-.696.684-1.438 1.328-.743.638-1.387 1.185h5.215z"/>
      <path id="path1003" d="M216.32 153.076h-5.246v-.99h2.018v-6.496h-2.018v-.886q.41 0 .878-.065.47-.072.71-.202.3-.163.469-.41.176-.254.202-.677h1.009v8.737h1.979z"/>
      <path id="path1005" d="M225.273 149.997q0 .677-.248 1.296-.247.618-.677 1.041-.469.456-1.12.703-.644.241-1.497.241-.794 0-1.53-.169-.736-.163-1.243-.397v-1.374h.09q.535.339 1.25.58.717.234 1.407.234.462 0 .892-.13.436-.13.775-.456.286-.28.43-.67.15-.391.15-.905 0-.502-.177-.847-.169-.345-.475-.553-.339-.248-.827-.345-.482-.104-1.08-.104-.573 0-1.107.078-.528.078-.912.156v-4.994h5.834v1.14h-4.577v2.578q.28-.026.573-.04.293-.012.507-.012.788 0 1.38.137.593.13 1.088.468.52.358.807.925.287.566.287 1.419z"/>
      <path id="path1007" d="M231.093 149.353q0 1.96-.638 3.522-.638 1.562-1.79 2.884h-1.491v-.065q.501-.45 1.002-1.1.508-.645.892-1.446.404-.833.638-1.758.241-.924.241-2.037 0-1.068-.24-2.032-.242-.963-.639-1.764-.41-.827-.892-1.445-.475-.625-1.002-1.1v-.066h1.49q1.153 1.322 1.791 2.884.638 1.563.638 3.523z"/>
      <path id="path1009" d="M243.717 148.409q.312.28.514.703.202.423.202 1.093 0 .664-.241 1.218-.241.553-.677.963-.488.456-1.152.677-.658.215-1.446.215-.807 0-1.588-.195-.782-.189-1.283-.417v-1.36h.098q.553.364 1.302.605t1.445.241q.41 0 .873-.137.462-.136.748-.403.3-.287.443-.632.15-.345.15-.872 0-.521-.17-.86-.162-.345-.455-.54-.293-.202-.71-.273-.417-.079-.898-.079h-.586v-1.08h.455q.99 0 1.576-.41.592-.417.592-1.211 0-.352-.15-.612-.15-.267-.416-.437-.28-.169-.599-.234-.319-.065-.723-.065-.618 0-1.315.221-.696.222-1.315.625h-.065v-1.36q.462-.228 1.23-.417.775-.195 1.498-.195.71 0 1.25.13t.977.417q.468.312.71.755.24.443.24 1.035 0 .807-.573 1.413-.566.599-1.341.755v.091q.312.052.716.221.404.163.684.41z"/>
      <path id="path1011" d="M253.19 149.932q0 1.478-.977 2.415-.97.931-2.383.931-.716 0-1.302-.221-.586-.221-1.035-.658-.56-.54-.866-1.432-.3-.892-.3-2.148 0-1.29.274-2.285.28-.997.885-1.771.573-.736 1.478-1.146.905-.417 2.11-.417.384 0 .644.033.26.032.527.117v1.243h-.065q-.182-.097-.553-.182-.365-.09-.749-.09-1.4 0-2.233.878-.833.872-.97 2.363.547-.332 1.074-.501.534-.176 1.23-.176.62 0 1.088.117.475.111.97.456.573.397.86 1.003.292.605.292 1.471zm-1.322.052q0-.605-.183-1.003-.175-.397-.586-.69-.299-.208-.664-.273-.364-.065-.761-.065-.554 0-1.029.13-.475.13-.977.404-.013.143-.019.28-.007.13-.007.332 0 1.028.208 1.627.215.593.586.938.3.286.645.423.351.13.762.13.944 0 1.484-.573.54-.58.54-1.66z"/>
      <path id="path1013" d="M261.594 150.375q0 1.256-.983 2.09-.976.833-2.46.833-1.576 0-2.514-.814-.93-.814-.93-2.083 0-.808.468-1.459.469-.657 1.322-1.041v-.04q-.782-.416-1.16-.91-.37-.496-.37-1.238 0-1.094.898-1.823.899-.729 2.285-.729 1.452 0 2.318.697.866.696.866 1.77 0 .658-.41 1.296-.41.632-1.205.99v.039q.912.39 1.393.963.482.573.482 1.459zm-1.543-4.733q0-.697-.54-1.107-.534-.417-1.367-.417-.82 0-1.348.39-.52.391-.52 1.055 0 .47.26.814.267.339.8.606.241.117.69.306.456.189.886.312.644-.43.892-.892.247-.462.247-1.067zm.202 4.856q0-.599-.267-.957-.26-.364-1.028-.729-.306-.143-.671-.267-.365-.123-.97-.345-.586.32-.944.866-.352.547-.352 1.237 0 .879.606 1.452.605.573 1.536.573.95 0 1.517-.488.573-.489.573-1.342z"/>
      <path id="path1015" d="M267.447 149.424h-4.062v-1.178h4.062z"/>
      <path id="path1017" d="M276.197 149.932q0 1.478-.976 2.415-.97.931-2.383.931-.716 0-1.302-.221-.586-.221-1.036-.658-.56-.54-.865-1.432-.3-.892-.3-2.148 0-1.29.274-2.285.28-.997.885-1.771.573-.736 1.478-1.146.905-.417 2.11-.417.383 0 .644.033.26.032.527.117v1.243h-.065q-.182-.097-.553-.182-.365-.09-.75-.09-1.399 0-2.232.878-.834.872-.97 2.363.547-.332 1.074-.501.534-.176 1.23-.176.619 0 1.088.117.475.111.97.456.573.397.86 1.003.292.605.292 1.471zm-1.322.052q0-.605-.182-1.003-.176-.397-.586-.69-.3-.208-.664-.273-.364-.065-.762-.065-.553 0-1.028.13t-.977.404q-.013.143-.02.28-.006.13-.006.332 0 1.028.208 1.627.215.593.586.938.3.286.645.423.351.13.761.13.944 0 1.485-.573.54-.58.54-1.66z"/>
      <path id="path1019" d="M284.517 147.647q0 1.27-.293 2.304-.286 1.036-.872 1.765-.592.742-1.484 1.146-.892.403-2.097.403-.338 0-.638-.039-.3-.032-.534-.11v-1.244h.066q.188.098.533.189.345.084.769.084 1.438 0 2.252-.859.82-.866.95-2.383-.605.365-1.139.521-.533.156-1.165.156-.599 0-1.087-.117-.482-.117-.97-.456-.573-.397-.866-1.009-.287-.612-.287-1.465 0-1.484.977-2.415.977-.93 2.383-.93.703 0 1.302.22.599.215 1.048.651.553.54.853 1.394.3.846.3 2.194zm-1.315-.28q0-1.01-.208-1.621-.208-.612-.573-.95-.306-.294-.658-.417-.351-.13-.761-.13-.938 0-1.485.585-.54.586-.54 1.647 0 .619.176 1.01.176.39.592.683.293.202.645.274.351.065.781.065.508 0 1.029-.137.52-.137.976-.397l.013-.267q.013-.137.013-.345z"/>
      <path id="path1021" d="M292.994 148.226q0 2.61-.82 3.835-.814 1.217-2.533 1.217-1.745 0-2.552-1.237-.8-1.237-.8-3.802 0-2.584.813-3.815.814-1.237 2.539-1.237 1.745 0 2.546 1.257.807 1.25.807 3.782zm-1.712 2.956q.228-.527.306-1.237.084-.716.084-1.719 0-.99-.084-1.719-.078-.729-.313-1.236-.228-.502-.625-.756-.39-.254-1.009-.254-.612 0-1.016.254-.397.254-.631.769-.221.481-.306 1.256-.078.775-.078 1.7 0 1.015.071 1.698.072.684.306 1.224.215.508.606.775.397.267 1.048.267.612 0 1.016-.254.403-.254.625-.768z"/>
      <path id="path1023" d="M301.47 148.226q0 2.61-.82 3.835-.814 1.217-2.532 1.217-1.745 0-2.552-1.237-.801-1.237-.801-3.802 0-2.584.814-3.815.813-1.237 2.539-1.237 1.744 0 2.545 1.257.807 1.25.807 3.782zm-1.712 2.956q.228-.527.306-1.237.085-.716.085-1.719 0-.99-.085-1.719-.078-.729-.312-1.236-.228-.502-.625-.756-.39-.254-1.01-.254-.611 0-1.015.254-.397.254-.632.769-.22.481-.306 1.256-.078.775-.078 1.7 0 1.015.072 1.698.072.684.306 1.224.215.508.605.775.398.267 1.049.267.612 0 1.015-.254.404-.254.625-.768z"/>
    </g>
    <g id="text41331" aria-label="Indium Antimonide" style="font-size:13.3333px;white-space:pre;shape-inside:url(#rect41333);display:inline;stroke-width:21.518;stroke-linecap:square;paint-order:markers stroke fill" transform="matrix(1.0799 0 0 1.26075 -84.207 -126.71)">
      <path id="path1026" d="M173.03 151.12h-3.828v-.99h1.27v-7.715h-1.27v-.99h3.829v.99h-1.27v7.715h1.27z"/>
      <path id="path1028" d="M181.208 151.12h-1.224v-4.141q0-.501-.059-.938-.059-.442-.215-.69-.163-.273-.469-.403-.305-.137-.794-.137-.501 0-1.048.247-.547.248-1.048.632v5.43h-1.224v-7.273h1.224v.808q.573-.476 1.185-.743.612-.266 1.256-.266 1.179 0 1.797.71.619.709.619 2.043z"/>
      <path id="path1030" d="M189.463 151.12h-1.224v-.762q-.527.455-1.1.71-.573.253-1.244.253-1.302 0-2.07-1.002-.762-1.003-.762-2.78 0-.925.26-1.647.267-.723.717-1.23.442-.496 1.028-.756.593-.26 1.224-.26.573 0 1.016.123.443.117.93.371v-3.15h1.225zm-1.224-1.79v-4.174q-.495-.221-.886-.306-.39-.085-.852-.085-1.029 0-1.602.716-.573.717-.573 2.032 0 1.295.443 1.972.443.67 1.42.67.52 0 1.054-.227.534-.234.996-.599z"/>
      <path id="path1032" d="M193.187 142.63h-1.38v-1.27h1.38zm-.078 8.49h-1.224v-7.273h1.224z"/>
      <path id="path1034" d="M201.56 151.12h-1.225v-.808q-.618.488-1.185.749-.566.26-1.25.26-1.146 0-1.784-.696-.638-.703-.638-2.058v-4.72h1.224v4.141q0 .553.052.95.053.391.222.671.176.287.456.417t.813.13q.476 0 1.036-.247.566-.248 1.054-.632v-5.43h1.224z"/>
      <path id="path1036" d="M214.58 151.12h-1.224v-4.141q0-.469-.046-.905-.039-.436-.175-.697-.15-.28-.43-.423-.28-.143-.807-.143-.515 0-1.029.26-.514.254-1.029.651.02.15.033.352.013.195.013.39v4.655h-1.224v-4.14q0-.482-.046-.912-.039-.436-.175-.696-.15-.28-.43-.417-.28-.143-.807-.143-.502 0-1.01.247-.5.248-1.002.632v5.43h-1.224v-7.273h1.224v.808q.573-.476 1.14-.743.572-.266 1.217-.266.742 0 1.256.312.52.313.775.866.742-.625 1.354-.899.612-.28 1.309-.28 1.198 0 1.764.73.573.722.573 2.024z"/>
      <path id="path1038" d="M177.256 167.786h-1.374l-.95-2.702h-4.193l-.95 2.702h-1.31l3.53-9.694h1.718zm-2.722-3.809-1.699-4.759-1.705 4.76z"/>
      <path id="path1040" d="M184.71 167.786h-1.224v-4.14q0-.502-.058-.938-.059-.443-.215-.69-.163-.274-.469-.404-.306-.137-.794-.137-.501 0-1.048.248-.547.247-1.049.631v5.43h-1.223v-7.272h1.223v.807q.573-.475 1.185-.742.612-.267 1.257-.267 1.178 0 1.797.71.618.71.618 2.044z"/>
      <path id="path1042" d="M190.843 167.721q-.345.091-.755.15-.404.058-.723.058-1.113 0-1.693-.599-.579-.599-.579-1.92v-3.867h-.827v-1.029h.827v-2.09h1.224v2.09h2.526v1.029h-2.526v3.313q0 .573.026.899.026.319.182.599.144.26.39.384.255.117.77.117.299 0 .624-.085.326-.09.469-.15h.065z"/>
      <path id="path1044" d="M193.636 159.297h-1.38v-1.27h1.38zm-.078 8.49h-1.224v-7.273h1.224z"/>
      <path id="path1046" d="M206.592 167.786h-1.224v-4.14q0-.47-.046-.905-.039-.437-.176-.697-.15-.28-.43-.423-.28-.144-.807-.144-.514 0-1.028.26-.515.255-1.029.652.02.15.033.352.013.195.013.39v4.655h-1.224v-4.14q0-.482-.046-.912-.039-.436-.176-.697-.15-.28-.43-.416-.28-.144-.807-.144-.5 0-1.009.248-.501.247-1.002.631v5.43h-1.224v-7.272h1.224v.807q.573-.475 1.139-.742.573-.267 1.217-.267.743 0 1.257.313.52.312.775.866.742-.625 1.354-.899.612-.28 1.308-.28 1.198 0 1.765.73.573.722.573 2.024z"/>
      <path id="path1048" d="M215.146 164.153q0 1.778-.911 2.806-.912 1.029-2.441 1.029-1.543 0-2.455-1.029-.905-1.028-.905-2.806 0-1.777.905-2.806.912-1.035 2.455-1.035 1.53 0 2.44 1.035.912 1.029.912 2.806zm-1.263 0q0-1.412-.553-2.096-.553-.69-1.536-.69-.997 0-1.55.69-.547.684-.547 2.096 0 1.367.554 2.077.553.703 1.543.703.976 0 1.53-.696.56-.704.56-2.084z"/>
      <path id="path1050" d="M223.122 167.786h-1.224v-4.14q0-.502-.059-.938-.059-.443-.215-.69-.163-.274-.469-.404-.306-.137-.794-.137-.501 0-1.048.248-.547.247-1.048.631v5.43h-1.224v-7.272h1.224v.807q.573-.475 1.185-.742.612-.267 1.256-.267 1.179 0 1.797.71.619.71.619 2.044z"/>
      <path id="path1052" d="M226.793 159.297h-1.38v-1.27h1.38zm-.078 8.49h-1.224v-7.273h1.224z"/>
      <path id="path1054" d="M235.036 167.786h-1.224v-.762q-.528.456-1.1.71-.573.254-1.244.254-1.302 0-2.07-1.003-.762-1.002-.762-2.78 0-.924.26-1.647.267-.722.716-1.23.443-.495 1.03-.755.592-.26 1.223-.26.573 0 1.016.123.442.117.93.37v-3.15h1.225zm-1.224-1.79v-4.173q-.495-.222-.886-.306-.39-.085-.853-.085-1.028 0-1.601.716t-.573 2.031q0 1.296.443 1.973.442.67 1.419.67.52 0 1.055-.227.533-.235.996-.6z"/>
      <path id="path1056" d="M243.532 164.277h-5.358q0 .67.201 1.172.202.495.554.814.338.312.8.468.47.157 1.03.157.741 0 1.49-.293.755-.3 1.074-.586h.065v1.334q-.618.26-1.263.437-.644.175-1.354.175-1.81 0-2.825-.976-1.016-.983-1.016-2.787 0-1.784.97-2.832.977-1.048 2.565-1.048 1.472 0 2.266.86.8.859.8 2.44zm-1.192-.938q-.007-.963-.488-1.49-.475-.528-1.452-.528-.983 0-1.569.58-.58.58-.657 1.438z"/>
    </g>
  </g>
</svg>
