<svg xmlns="http://www.w3.org/2000/svg" xmlns:xlink="http://www.w3.org/1999/xlink" id="svg4953" version="1.1" viewBox="0 0 238.24 300">
  <defs id="defs4950">
    <linearGradient id="linearGradient51871">
      <stop id="stop51867" offset="0" style="stop-color:#000;stop-opacity:1"/>
      <stop id="stop51875" offset=".4" style="stop-color:#676767;stop-opacity:1"/>
      <stop id="stop51877" offset=".6" style="stop-color:#3f3f3f;stop-opacity:1"/>
      <stop id="stop51879" offset=".8" style="stop-color:#333;stop-opacity:1"/>
      <stop id="stop51869" offset="1" style="stop-color:#262626;stop-opacity:1"/>
    </linearGradient>
    <linearGradient id="linearGradient48050">
      <stop id="stop48046" offset="0" style="stop-color:#fac000;stop-opacity:1"/>
      <stop id="stop48054" offset=".2" style="stop-color:#ffd645;stop-opacity:1"/>
      <stop id="stop48056" offset=".4" style="stop-color:#ffc505;stop-opacity:1"/>
      <stop id="stop48058" offset=".6" style="stop-color:#ffc80b;stop-opacity:1"/>
      <stop id="stop48060" offset=".8" style="stop-color:#ffd038;stop-opacity:1"/>
      <stop id="stop48048" offset="1" style="stop-color:#bd9100;stop-opacity:1"/>
    </linearGradient>
    <linearGradient id="linearGradient10014">
      <stop id="stop10010" offset="0" style="stop-color:#ffc242;stop-opacity:1"/>
      <stop id="stop10018" offset=".2" style="stop-color:#c08a00;stop-opacity:1"/>
      <stop id="stop10020" offset=".4" style="stop-color:#c09100;stop-opacity:1"/>
      <stop id="stop10022" offset=".6" style="stop-color:#eab100;stop-opacity:1"/>
      <stop id="stop10024" offset=".8" style="stop-color:#d49000;stop-opacity:1"/>
      <stop id="stop10012" offset="1" style="stop-color:#f79e00;stop-opacity:1"/>
    </linearGradient>
    <linearGradient xlink:href="#linearGradient30571" id="linearGradient30573" x1="37.801" x2="83.627" y1="38.577" y2="38.577" gradientTransform="translate(-39.858 -28.02) scale(2.70567)" gradientUnits="userSpaceOnUse"/>
    <linearGradient id="linearGradient30571">
      <stop id="stop30567" offset="0" style="stop-color:#fff;stop-opacity:1"/>
      <stop id="stop30575" offset=".201" style="stop-color:#e5e5e5;stop-opacity:1"/>
      <stop id="stop30577" offset=".4" style="stop-color:#ccc;stop-opacity:1"/>
      <stop id="stop30579" offset=".6" style="stop-color:#b2b2b2;stop-opacity:1"/>
      <stop id="stop30581" offset=".8" style="stop-color:#999;stop-opacity:1"/>
      <stop id="stop30569" offset="1" style="stop-color:#b2b2b2;stop-opacity:1"/>
    </linearGradient>
    <linearGradient xlink:href="#linearGradient51871" id="linearGradient51873-5" x1="87.133" x2="108.084" y1="40.778" y2="40.778" gradientTransform="translate(-39.858 -28.02) scale(2.70567)" gradientUnits="userSpaceOnUse"/>
    <linearGradient xlink:href="#linearGradient68939" id="linearGradient47287-8" x1="84.663" x2="113.143" y1="71.977" y2="71.977" gradientTransform="translate(-39.858 -28.02) scale(2.70567)" gradientUnits="userSpaceOnUse"/>
    <linearGradient id="linearGradient68939">
      <stop id="stop68927" offset="0" style="stop-color:#eb0f0f;stop-opacity:1"/>
      <stop id="stop68929" offset=".2" style="stop-color:#c80f0f;stop-opacity:1"/>
      <stop id="stop68931" offset=".4" style="stop-color:#b90f0f;stop-opacity:1"/>
      <stop id="stop68933" offset=".6" style="stop-color:#af0f0f;stop-opacity:1"/>
      <stop id="stop68935" offset=".8" style="stop-color:#9b0f0f;stop-opacity:1"/>
      <stop id="stop68937" offset="1" style="stop-color:#870f0f;stop-opacity:1"/>
    </linearGradient>
    <linearGradient xlink:href="#linearGradient48050" id="linearGradient48052-0" x1="82.088" x2="115.718" y1="71.977" y2="71.977" gradientTransform="translate(-39.858 -28.02) scale(2.70567)" gradientUnits="userSpaceOnUse"/>
    <linearGradient xlink:href="#linearGradient10014" id="linearGradient10016-7" x1="50.746" x2="81.038" y1="15.146" y2="15.146" gradientTransform="translate(-39.858 -28.02) scale(2.70567)" gradientUnits="userSpaceOnUse"/>
    <linearGradient xlink:href="#linearGradient65784" id="linearGradient5174-5" x1="37.283" x2="95.537" y1="64.209" y2="64.468" gradientTransform="translate(-39.858 -28.02) scale(2.70567)" gradientUnits="userSpaceOnUse"/>
    <linearGradient id="linearGradient65784">
      <stop id="stop65772" offset="0" style="stop-color:#fa0f0f;stop-opacity:1"/>
      <stop id="stop65774" offset=".201" style="stop-color:#e60f0f;stop-opacity:1"/>
      <stop id="stop65776" offset=".4" style="stop-color:#c80f0f;stop-opacity:1"/>
      <stop id="stop65778" offset=".6" style="stop-color:#9b0f0f;stop-opacity:1"/>
      <stop id="stop65780" offset=".8" style="stop-color:#b40f0f;stop-opacity:1"/>
      <stop id="stop65782" offset="1" style="stop-color:#d20f0f;stop-opacity:1"/>
    </linearGradient>
    <linearGradient xlink:href="#linearGradient67250" id="linearGradient7094-6" x1="36.506" x2="96.573" y1="116.509" y2="116.768" gradientTransform="translate(-39.858 -28.02) scale(2.70567)" gradientUnits="userSpaceOnUse"/>
    <linearGradient id="linearGradient67250">
      <stop id="stop67238" offset="0" style="stop-color:#f00000;stop-opacity:1"/>
      <stop id="stop67240" offset=".201" style="stop-color:#e10000;stop-opacity:1"/>
      <stop id="stop67242" offset=".4" style="stop-color:#c30000;stop-opacity:1"/>
      <stop id="stop67244" offset=".6" style="stop-color:#870000;stop-opacity:1"/>
      <stop id="stop67246" offset=".8" style="stop-color:#d20000;stop-opacity:1"/>
      <stop id="stop67248" offset="1" style="stop-color:#b40000;stop-opacity:1"/>
    </linearGradient>
    <path id="rect35313" d="M194.732 140.911H311.18v40.121H194.732z"/>
    <path id="rect41333" d="M168.311 138.954h120.362v45.013H168.311z"/>
  </defs>
  <g id="mtc" transform="translate(-30.88)">
    <path id="rect49618-1" d="M195.895 64.825v34.973h39.348v-.217a15.006 17.486 0 0 0 2.334.217 15.006 17.486 0 0 0 15.006-17.486 15.006 17.486 0 0 0-15.006-17.487 15.006 17.486 0 0 0-2.334.216v-.216z" style="fill:url(#linearGradient51873-5);fill-opacity:1;stroke:none;stroke-width:6.72325;stroke-linecap:square;stroke-dasharray:none;stroke-opacity:1;paint-order:markers stroke fill"/>
    <path id="rect44375-2" d="M189.213 132.399h77.057v68.651h-77.057z" style="fill:url(#linearGradient47287-8);fill-opacity:1;stroke:url(#linearGradient48052-0);stroke-width:5.70053;stroke-linecap:square;stroke-dasharray:none;stroke-opacity:1;paint-order:markers stroke fill"/>
    <ellipse id="path9282-8" cx="138.425" cy="12.96" rx="40.981" ry="12.96" style="fill:url(#linearGradient10016-7);fill-opacity:1;stroke-width:13.7846;stroke-linecap:square;paint-order:markers stroke fill"/>
    <path id="rect4995-9" d="M139.825 11.208A77.408 20.665 0 0 0 62.463 31.51h-.465v266.388h155.536V31.51h-.314a77.408 20.665 0 0 0-77.395-20.302Z" style="fill:url(#linearGradient5174-5);fill-opacity:1;stroke-width:19.1554;stroke-linecap:square;paint-order:markers stroke fill"/>
    <path id="path5000-7" d="M139.828 275.305a80.894 1.78 0 0 0-80.846 1.749h-.487V300h162.542v-22.946h-.329a80.894 1.78 0 0 0-80.88-1.75z" style="fill:url(#linearGradient7094-6);fill-opacity:1;stroke-width:5.7472;stroke-linecap:square;paint-order:markers stroke fill"/>
    <ellipse id="path12977-7" cx="68.709" cy="206.131" rx="42.382" ry="65.849" style="fill:#e7a600;fill-opacity:1;stroke-width:18.3877;stroke-linecap:square;paint-order:markers stroke fill" transform="rotate(-1.274)"/>
    <ellipse id="path21707-9" cx="65.776" cy="207.063" rx="25.219" ry="41.681" style="fill:#fff;fill-opacity:1;stroke-width:22.6585;stroke-linecap:square;paint-order:markers stroke fill" transform="rotate(-1.794)"/>
    <ellipse id="ellipse26081-1" cx="67.019" cy="206.364" rx="15.07" ry="22.061" style="fill:#e7a600;fill-opacity:1;stroke-width:6.34651;stroke-linecap:square;paint-order:markers stroke fill" transform="rotate(-1.201) skewX(.152)"/>
    <path id="rect28387" d="M62.418 36.427H186.41v79.859H62.418z" style="fill:url(#linearGradient30573);fill-opacity:1;stroke-width:16.123;stroke-linecap:square;paint-order:markers stroke fill"/>
    <g id="text32821" aria-label="TECHNOLOGIES" style="font-size:8.73245px;stroke-width:14.0929;stroke-linecap:square;paint-order:markers stroke fill" transform="scale(1.01305 .98712)">
      <path id="path966" d="M116.092 98.736h-2.269v5.598h-.844v-5.598h-2.268v-.75h5.38z"/>
      <path id="path968" d="M121.127 104.334h-4.182v-6.349h4.182v.75h-3.338v1.74h3.338v.75h-3.338v2.359h3.338z"/>
      <path id="path970" d="M127.37 103.874q-.235.102-.427.192-.187.09-.494.187-.26.081-.567.137-.303.06-.67.06-.69 0-1.258-.192-.562-.197-.98-.61-.41-.405-.64-1.028-.23-.627-.23-1.454 0-.784.222-1.403.221-.618.64-1.044.404-.414.976-.631.575-.218 1.275-.218.511 0 1.019.124.511.124 1.134.435v1.002h-.064q-.525-.44-1.04-.64-.516-.2-1.105-.2-.482 0-.87.158-.383.153-.686.481-.294.32-.46.81-.163.487-.163 1.126 0 .67.18 1.151.183.482.468.785.299.316.695.47.401.148.845.148.61 0 1.142-.209.533-.209.998-.626h.06z"/>
      <path id="path972" d="M133.42 104.334h-.844v-3.108h-3.168v3.108h-.844v-6.349h.844v2.49h3.168v-2.49h.844z"/>
      <path id="path974" d="M139.97 104.334h-1.045l-3.01-5.68v5.68h-.79v-6.349h1.31l2.746 5.185v-5.185h.789z"/>
      <path id="path976" d="M146.391 98.715q.388.426.593 1.044.209.618.209 1.403t-.214 1.407q-.209.618-.588 1.032-.392.43-.93.648-.533.217-1.219.217-.67 0-1.22-.221-.545-.222-.929-.644-.384-.422-.593-1.036-.204-.614-.204-1.403 0-.776.204-1.39.205-.618.597-1.057.375-.418.93-.64.558-.222 1.215-.222.682 0 1.224.226.546.222.925.636zm-.077 2.447q0-1.237-.554-1.906-.554-.674-1.514-.674-.968 0-1.522.674-.55.67-.55 1.906 0 1.25.563 1.914.563.661 1.51.661.946 0 1.504-.66.563-.666.563-1.915z"/>
      <path id="path978" d="M152.548 104.334h-4.017v-6.349h.845v5.599h3.172z"/>
      <path id="path980" d="M158.04 98.715q.388.426.593 1.044.209.618.209 1.403t-.214 1.407q-.209.618-.588 1.032-.392.43-.93.648-.533.217-1.219.217-.67 0-1.22-.221-.545-.222-.929-.644-.384-.422-.593-1.036-.204-.614-.204-1.403 0-.776.204-1.39.205-.618.597-1.057.375-.418.93-.64.558-.222 1.215-.222.682 0 1.224.226.545.222.925.636zm-.077 2.447q0-1.237-.554-1.906-.554-.674-1.514-.674-.968 0-1.522.674-.55.67-.55 1.906 0 1.25.563 1.914.563.661 1.51.661.946 0 1.504-.66.563-.666.563-1.915z"/>
      <path id="path982" d="M165.476 103.865q-.52.24-1.138.418-.614.175-1.19.175-.742 0-1.36-.205-.618-.204-1.053-.614-.44-.413-.678-1.032-.239-.622-.239-1.454 0-1.522.887-2.4.891-.883 2.443-.883.542 0 1.104.132.568.128 1.22.44v1.002h-.077q-.132-.103-.384-.269-.251-.166-.494-.277-.294-.132-.67-.218-.37-.09-.844-.09-1.066 0-1.688.687-.619.683-.619 1.85 0 1.233.649 1.92.648.682 1.765.682.41 0 .814-.081.41-.081.717-.21v-1.555h-1.702v-.742h2.537z"/>
      <path id="path984" d="M169.19 104.334h-2.507v-.648h.831v-5.053h-.831v-.648h2.507v.648h-.831v5.053h.831z"/>
      <path id="path986" d="M174.81 104.334h-4.183v-6.349h4.183v.75h-3.339v1.74h3.339v.75h-3.339v2.359h3.339z"/>
      <path id="path988" d="M180.762 102.522q0 .371-.175.734-.17.362-.481.614-.342.272-.798.426-.452.153-1.091.153-.687 0-1.237-.127-.546-.128-1.113-.38v-1.057h.06q.482.4 1.113.618.63.217 1.185.217.785 0 1.22-.294.439-.294.439-.784 0-.423-.209-.623-.205-.2-.627-.311-.32-.086-.695-.141-.37-.055-.789-.14-.844-.18-1.253-.61-.405-.435-.405-1.13 0-.798.673-1.305.674-.512 1.71-.512.67 0 1.228.128.559.128.99.316v.997h-.06q-.363-.307-.955-.507-.589-.205-1.207-.205-.678 0-1.092.282-.409.281-.409.725 0 .396.205.622.204.226.72.346.273.06.776.145.503.085.853.174.708.188 1.066.567.358.38.358 1.062z"/>
    </g>
    <g id="text35311" aria-label="(215) 368-6900" style="font-size:13.3333px;white-space:pre;shape-inside:url(#rect35313);display:inline;fill:#565656;stroke-width:21.518;stroke-linecap:square;paint-order:markers stroke fill" transform="matrix(.62297 0 0 .55185 -4.143 27.65)">
      <path id="path991" d="M199.83 155.759h-1.49q-1.153-1.322-1.791-2.884-.638-1.563-.638-3.522 0-1.96.638-3.523.638-1.562 1.79-2.884h1.491v.065q-.527.476-1.01 1.1-.474.62-.884 1.446-.391.8-.638 1.764-.241.964-.241 2.032 0 1.113.234 2.037.24.925.645 1.758.39.8.891 1.445.502.651 1.003 1.1z"/>
      <path id="path993" d="M208.398 153.076h-6.563v-1.36l1.367-1.172q.69-.586 1.283-1.165 1.25-1.211 1.712-1.921.462-.716.462-1.543 0-.755-.5-1.178-.496-.43-1.388-.43-.592 0-1.282.208-.69.209-1.348.638h-.065v-1.367q.462-.228 1.23-.417.775-.188 1.498-.188 1.49 0 2.337.722.847.716.847 1.947 0 .553-.144 1.035-.136.475-.41.905-.254.404-.599.794-.338.39-.827.866-.696.684-1.438 1.328-.743.638-1.387 1.185h5.215z"/>
      <path id="path995" d="M216.32 153.076h-5.246v-.99h2.018v-6.496h-2.018v-.886q.41 0 .878-.065.47-.072.71-.202.3-.163.469-.41.176-.254.202-.677h1.009v8.737h1.979z"/>
      <path id="path997" d="M225.273 149.997q0 .677-.248 1.296-.247.618-.677 1.041-.469.456-1.12.703-.644.241-1.497.241-.794 0-1.53-.169-.736-.163-1.243-.397v-1.374h.09q.535.339 1.25.58.717.234 1.407.234.462 0 .892-.13.436-.13.775-.456.286-.28.43-.67.15-.391.15-.905 0-.502-.177-.847-.169-.345-.475-.553-.339-.248-.827-.345-.482-.104-1.08-.104-.573 0-1.107.078-.528.078-.912.156v-4.994h5.834v1.14h-4.577v2.578q.28-.026.573-.04.293-.012.507-.012.788 0 1.38.137.593.13 1.088.468.52.358.807.925.287.566.287 1.419z"/>
      <path id="path999" d="M231.093 149.353q0 1.96-.638 3.522-.638 1.562-1.79 2.884h-1.491v-.065q.501-.45 1.002-1.1.508-.645.892-1.446.404-.833.638-1.758.241-.924.241-2.037 0-1.068-.24-2.032-.242-.963-.639-1.764-.41-.827-.892-1.445-.475-.625-1.002-1.1v-.066h1.49q1.153 1.322 1.791 2.884.638 1.563.638 3.523z"/>
      <path id="path1001" d="M243.717 148.409q.312.28.514.703.202.423.202 1.093 0 .664-.241 1.218-.241.553-.677.963-.488.456-1.152.677-.658.215-1.446.215-.807 0-1.588-.195-.782-.189-1.283-.417v-1.36h.098q.553.364 1.302.605t1.445.241q.41 0 .873-.137.462-.136.748-.403.3-.287.443-.632.15-.345.15-.872 0-.521-.17-.86-.162-.345-.455-.54-.293-.202-.71-.273-.417-.079-.898-.079h-.586v-1.08h.455q.99 0 1.576-.41.592-.417.592-1.211 0-.352-.15-.612-.15-.267-.416-.437-.28-.169-.599-.234-.319-.065-.723-.065-.618 0-1.315.221-.696.222-1.315.625h-.065v-1.36q.462-.228 1.23-.417.775-.195 1.498-.195.71 0 1.25.13t.977.417q.468.312.71.755.24.443.24 1.035 0 .807-.573 1.413-.566.599-1.341.755v.091q.312.052.716.221.404.163.684.41z"/>
      <path id="path1003" d="M253.19 149.932q0 1.478-.977 2.415-.97.931-2.383.931-.716 0-1.302-.221-.586-.221-1.035-.658-.56-.54-.866-1.432-.3-.892-.3-2.148 0-1.29.274-2.285.28-.997.885-1.771.573-.736 1.478-1.146.905-.417 2.11-.417.384 0 .644.033.26.032.527.117v1.243h-.065q-.182-.097-.553-.182-.365-.09-.749-.09-1.4 0-2.233.878-.833.872-.97 2.363.547-.332 1.074-.501.534-.176 1.23-.176.62 0 1.088.117.475.111.97.456.573.397.86 1.003.292.605.292 1.471zm-1.322.052q0-.605-.183-1.003-.175-.397-.586-.69-.299-.208-.664-.273-.364-.065-.761-.065-.554 0-1.029.13-.475.13-.977.404-.013.143-.019.28-.007.13-.007.332 0 1.028.208 1.627.215.593.586.938.3.286.645.423.351.13.762.13.944 0 1.484-.573.54-.58.54-1.66z"/>
      <path id="path1005" d="M261.594 150.375q0 1.256-.983 2.09-.976.833-2.46.833-1.576 0-2.514-.814-.93-.814-.93-2.083 0-.808.468-1.459.469-.657 1.322-1.041v-.04q-.782-.416-1.16-.91-.37-.496-.37-1.238 0-1.094.898-1.823.899-.729 2.285-.729 1.452 0 2.318.697.866.696.866 1.77 0 .658-.41 1.296-.41.632-1.205.99v.039q.912.39 1.393.963.482.573.482 1.459zm-1.543-4.733q0-.697-.54-1.107-.534-.417-1.367-.417-.82 0-1.348.39-.52.391-.52 1.055 0 .47.26.814.267.339.8.606.241.117.69.306.456.189.886.312.644-.43.892-.892.247-.462.247-1.067zm.202 4.856q0-.599-.267-.957-.26-.364-1.028-.729-.306-.143-.671-.267-.365-.123-.97-.345-.586.32-.944.866-.352.547-.352 1.237 0 .879.606 1.452.605.573 1.536.573.95 0 1.517-.488.573-.489.573-1.342z"/>
      <path id="path1007" d="M267.447 149.424h-4.062v-1.178h4.062z"/>
      <path id="path1009" d="M276.197 149.932q0 1.478-.976 2.415-.97.931-2.383.931-.716 0-1.302-.221-.586-.221-1.036-.658-.56-.54-.865-1.432-.3-.892-.3-2.148 0-1.29.274-2.285.28-.997.885-1.771.573-.736 1.478-1.146.905-.417 2.11-.417.383 0 .644.033.26.032.527.117v1.243h-.065q-.182-.097-.553-.182-.365-.09-.75-.09-1.399 0-2.232.878-.834.872-.97 2.363.547-.332 1.074-.501.534-.176 1.23-.176.619 0 1.088.117.475.111.97.456.573.397.86 1.003.292.605.292 1.471zm-1.322.052q0-.605-.182-1.003-.176-.397-.586-.69-.3-.208-.664-.273-.364-.065-.762-.065-.553 0-1.028.13t-.977.404q-.013.143-.02.28-.006.13-.006.332 0 1.028.208 1.627.215.593.586.938.3.286.645.423.351.13.761.13.944 0 1.485-.573.54-.58.54-1.66z"/>
      <path id="path1011" d="M284.517 147.647q0 1.27-.293 2.304-.286 1.036-.872 1.765-.592.742-1.484 1.146-.892.403-2.097.403-.338 0-.638-.039-.3-.032-.534-.11v-1.244h.066q.188.098.533.189.345.084.769.084 1.438 0 2.252-.859.82-.866.95-2.383-.605.365-1.139.521-.533.156-1.165.156-.599 0-1.087-.117-.482-.117-.97-.456-.573-.397-.866-1.009-.287-.612-.287-1.465 0-1.484.977-2.415.977-.93 2.383-.93.703 0 1.302.22.599.215 1.048.651.553.54.853 1.394.3.846.3 2.194zm-1.315-.28q0-1.01-.208-1.621-.208-.612-.573-.95-.306-.294-.658-.417-.351-.13-.761-.13-.938 0-1.485.585-.54.586-.54 1.647 0 .619.176 1.01.176.39.592.683.293.202.645.274.351.065.781.065.508 0 1.029-.137.52-.137.976-.397l.013-.267q.013-.137.013-.345z"/>
      <path id="path1013" d="M292.994 148.226q0 2.61-.82 3.835-.814 1.217-2.533 1.217-1.745 0-2.552-1.237-.8-1.237-.8-3.802 0-2.584.813-3.815.814-1.237 2.539-1.237 1.745 0 2.546 1.257.807 1.25.807 3.782zm-1.712 2.956q.228-.527.306-1.237.084-.716.084-1.719 0-.99-.084-1.719-.078-.729-.313-1.236-.228-.502-.625-.756-.39-.254-1.009-.254-.612 0-1.016.254-.397.254-.631.769-.221.481-.306 1.256-.078.775-.078 1.7 0 1.015.071 1.698.072.684.306 1.224.215.508.606.775.397.267 1.048.267.612 0 1.016-.254.403-.254.625-.768z"/>
      <path id="path1015" d="M301.47 148.226q0 2.61-.82 3.835-.814 1.217-2.532 1.217-1.745 0-2.552-1.237-.801-1.237-.801-3.802 0-2.584.814-3.815.813-1.237 2.539-1.237 1.744 0 2.545 1.257.807 1.25.807 3.782zm-1.712 2.956q.228-.527.306-1.237.085-.716.085-1.719 0-.99-.085-1.719-.078-.729-.312-1.236-.228-.502-.625-.756-.39-.254-1.01-.254-.611 0-1.015.254-.397.254-.632.769-.22.481-.306 1.256-.078.775-.078 1.7 0 1.015.072 1.698.072.684.306 1.224.215.508.605.775.398.267 1.049.267.612 0 1.015-.254.404-.254.625-.768z"/>
    </g>
    <g id="text5669" aria-label="Mercury-Cadmium-Telluride" style="font-size:5.2446px;white-space:pre;inline-size:47.4604;display:inline;fill:red;stroke-width:3.96875;paint-order:markers stroke fill" transform="matrix(2.75446 0 0 2.70567 -46.355 -30.251)">
      <path id="path1018" d="M60.627 28.822h-.507v-3.286l-1.06 2.236h-.303l-1.052-2.236v3.286h-.474v-3.813h.691l1.017 2.123.983-2.123h.705z" style="fill:#000"/>
      <path id="path1020" d="M64.007 27.442h-2.108q0 .264.08.46.08.195.217.32.134.124.315.185.185.062.405.062.292 0 .586-.116.297-.117.423-.23h.026v.525q-.244.102-.497.171-.254.07-.533.07-.712 0-1.111-.385-.4-.386-.4-1.096 0-.701.382-1.114.384-.412 1.009-.412.578 0 .89.338.316.338.316.96zm-.469-.369q-.002-.379-.192-.586-.187-.208-.57-.208-.388 0-.618.228-.228.228-.259.566z" style="fill:#000"/>
      <path id="path1022" d="M66.522 26.487h-.026q-.108-.026-.21-.036-.1-.013-.238-.013-.223 0-.43.1-.208.097-.4.253v2.031h-.481v-2.86h.481v.422q.287-.23.505-.325.22-.097.448-.097.125 0 .182.007.056.005.169.023z" style="fill:#000"/>
      <path id="path1024" d="M69.09 28.643q-.24.115-.458.179-.215.064-.459.064-.31 0-.568-.09-.259-.092-.443-.276-.187-.185-.29-.466-.102-.282-.102-.658 0-.702.384-1.102.387-.399 1.02-.399.245 0 .48.07.239.068.436.168v.535h-.025q-.22-.171-.456-.263-.233-.093-.456-.093-.41 0-.648.277-.236.274-.236.807 0 .517.23.796.234.277.654.277.146 0 .297-.039.151-.038.271-.1.105-.053.198-.112.092-.062.146-.105h.025z" style="fill:#000"/>
      <path id="path1026" d="M72.079 28.822h-.482v-.317q-.243.192-.466.294-.223.102-.492.102-.45 0-.701-.274-.251-.276-.251-.809v-1.856h.481v1.628q0 .218.02.374.021.154.088.264.069.113.18.164.11.051.32.051.186 0 .406-.097.223-.098.415-.249v-2.135h.482z" style="fill:#000"/>
      <path id="path1028" d="M74.811 26.487h-.026q-.107-.026-.21-.036-.1-.013-.238-.013-.222 0-.43.1-.207.097-.4.253v2.031h-.48v-2.86h.48v.422q.287-.23.505-.325.22-.097.448-.097.126 0 .182.007.056.005.17.023z" style="fill:#000"/>
      <path id="path1030" d="m77.738 25.962-1.67 3.915h-.514l.532-1.193-1.14-2.722h.523l.879 2.12.886-2.12z" style="fill:#000"/>
      <path id="path1032" d="M79.782 27.385h-1.598v-.463h1.598z" style="fill:#000"/>
      <path id="path1034" d="M60.176 35.101q-.141.062-.256.115-.113.054-.297.113-.156.049-.34.082-.183.036-.403.036-.415 0-.755-.115-.338-.118-.59-.366-.245-.244-.383-.618-.139-.376-.139-.873 0-.471.133-.842.134-.372.385-.628.243-.248.586-.379.346-.13.766-.13.307 0 .612.074.307.074.68.261v.602h-.038q-.315-.264-.624-.384-.31-.12-.664-.12-.289 0-.522.094-.23.092-.412.29-.177.192-.277.486-.097.292-.097.676 0 .402.107.692.11.289.282.47.18.19.417.282.241.09.507.09.367 0 .687-.125.32-.126.599-.377h.036z" style="fill:#000"/>
      <path id="path1036" d="M63.077 35.378h-.479v-.305q-.064.044-.174.123-.107.077-.21.123-.12.059-.276.097-.156.041-.366.041-.387 0-.656-.256t-.269-.653q0-.325.138-.525.141-.202.4-.317.261-.116.627-.157.366-.04.786-.061v-.074q0-.164-.058-.272-.057-.107-.164-.169-.103-.059-.246-.08-.144-.02-.3-.02-.19 0-.422.051-.233.05-.482.144h-.025v-.49q.14-.038.407-.084.266-.046.525-.046.302 0 .525.051.225.05.389.17.161.117.246.304.084.187.084.464zm-.479-.704v-.797q-.22.013-.52.039-.296.025-.47.074-.208.059-.336.184-.128.123-.128.34 0 .247.148.372.149.123.454.123.253 0 .463-.097.21-.1.39-.238z" style="fill:#000"/>
      <path id="path1038" d="M66.324 35.378h-.481v-.3q-.207.18-.433.28-.225.1-.489.1-.512 0-.814-.395-.3-.395-.3-1.094 0-.363.103-.648.105-.284.281-.484.174-.194.405-.297.233-.102.481-.102.226 0 .4.049.174.046.366.146v-1.24h.481zm-.481-.704v-1.642q-.195-.087-.348-.12-.154-.034-.336-.034-.404 0-.63.282-.225.282-.225.8 0 .509.174.775.174.264.558.264.205 0 .415-.09.21-.092.392-.235z" style="fill:#000"/>
      <path id="path1040" d="M71.446 35.378h-.481v-1.629q0-.184-.018-.356-.016-.171-.07-.274-.058-.11-.168-.166-.11-.057-.318-.057-.202 0-.405.103-.202.1-.404.256.008.059.013.138.005.077.005.154v1.83h-.482V33.75q0-.19-.018-.358-.015-.172-.069-.274-.059-.11-.169-.164-.11-.057-.317-.057-.197 0-.397.098-.197.097-.395.248v2.136h-.481v-2.86h.481v.317q.226-.187.449-.292.225-.105.478-.105.292 0 .495.123.205.123.304.34.292-.245.533-.353.24-.11.515-.11.471 0 .694.287.225.284.225.796z" style="fill:#000"/>
      <path id="path1042" d="M72.89 32.038h-.542v-.499h.542zm-.03 3.34h-.482v-2.86h.482z" style="fill:#000"/>
      <path id="path1044" d="M76.184 35.378h-.482v-.318q-.243.192-.466.295-.223.102-.491.102-.451 0-.702-.274-.251-.276-.251-.81v-1.856h.481v1.629q0 .218.02.374.021.154.088.264.069.112.18.164.11.05.32.05.186 0 .406-.097.223-.097.415-.248v-2.136h.482z" style="fill:#000"/>
      <path id="path1046" d="M81.305 35.378h-.481v-1.629q0-.184-.018-.356-.015-.171-.07-.274-.058-.11-.168-.166-.11-.057-.318-.057-.202 0-.404.103-.203.1-.405.256.008.059.013.138.005.077.005.154v1.83h-.481V33.75q0-.19-.018-.358-.016-.172-.07-.274-.058-.11-.169-.164-.11-.057-.317-.057-.197 0-.397.098-.197.097-.394.248v2.136h-.482v-2.86h.482v.317q.225-.187.448-.292.225-.105.479-.105.292 0 .494.123.205.123.305.34.292-.245.532-.353.241-.11.515-.11.471 0 .694.287.225.284.225.796z" style="fill:#000"/>
      <path id="path1048" d="M83.748 33.941H82.15v-.463h1.598z" style="fill:#000"/>
      <path id="path1050" d="M59.95 38.571h-1.362v3.363h-.507V38.57H56.72v-.45h3.232z" style="fill:#000"/>
      <path id="path1052" d="M62.255 40.553h-2.107q0 .264.08.461.078.195.217.32.133.123.315.185.184.061.404.061.292 0 .587-.115.297-.118.422-.23h.026v.524q-.243.103-.497.172-.253.07-.533.07-.711 0-1.11-.385-.4-.387-.4-1.096 0-.702.381-1.114.384-.412 1.01-.412.578 0 .89.338.315.338.315.96zm-.468-.369q-.003-.379-.192-.586-.187-.207-.571-.207-.387 0-.618.228-.228.227-.258.565z" style="fill:#000"/>
      <path id="path1054" d="M63.472 41.934h-.482v-3.985h.482z" style="fill:#000"/>
      <path id="path1056" d="M64.91 41.934h-.48v-3.985h.48z" style="fill:#000"/>
      <path id="path1058" d="M68.235 41.934h-.482v-.318q-.243.192-.466.294-.222.103-.491.103-.451 0-.702-.274-.251-.277-.251-.81v-1.856h.481v1.629q0 .217.021.374.02.153.087.263.07.113.18.164.11.052.32.052.186 0 .407-.098.222-.097.414-.248v-2.136h.482z" style="fill:#000"/>
      <path id="path1060" d="M70.967 39.598h-.025q-.108-.026-.21-.036-.1-.013-.238-.013-.223 0-.43.1-.208.098-.4.254v2.03h-.482v-2.86h.482v.423q.287-.23.504-.326.22-.097.448-.097.126 0 .182.008.057.005.17.023z" style="fill:#000"/>
      <path id="path1062" d="M71.938 38.594h-.543v-.5h.543zm-.03 3.34h-.482v-2.86h.481z" style="fill:#000"/>
      <path id="path1064" d="M75.18 41.934h-.482v-.3q-.207.18-.432.28-.226.099-.49.099-.512 0-.814-.394-.3-.395-.3-1.094 0-.364.103-.648.105-.284.282-.484.174-.194.404-.297.233-.102.482-.102.225 0 .4.048.173.046.365.146v-1.24h.482zm-.482-.705v-1.641q-.194-.087-.348-.12-.154-.034-.335-.034-.405 0-.63.282-.226.282-.226.799 0 .51.174.776.175.264.559.264.205 0 .415-.09.21-.092.391-.236z" style="fill:#000"/>
      <path id="path1066" d="M78.522 40.553h-2.108q0 .264.08.461.079.195.217.32.133.123.315.185.185.061.405.061.292 0 .586-.115.297-.118.423-.23h.025v.524q-.243.103-.496.172-.254.07-.533.07-.712 0-1.111-.385-.4-.387-.4-1.096 0-.702.382-1.114.384-.412 1.009-.412.578 0 .89.338.316.338.316.96zm-.469-.369q-.002-.379-.192-.586-.187-.207-.571-.207-.387 0-.617.228-.228.227-.259.565z" style="fill:#000"/>
    </g>
  </g>
</svg>
